<!--?xml version="1.0" standalone="no"?-->
              <svg id="sw-js-blob-svg" viewBox="0 0 100 100" xmlns="http://www.w3.org/2000/svg" version="1.1">
                    <defs> 
                        <linearGradient id="sw-gradient" x1="0" x2="1" y1="1" y2="0">
                            <stop id="stop1" stop-color="rgba(220.561, 222.429, 224.441, 1)" offset="0%"></stop>
                            <stop id="stop2" stop-color="rgba(208, 221, 235, 1)" offset="100%"></stop>
                        </linearGradient>
                    </defs>
                <path fill="url(#sw-gradient)" d="M20.8,-28.7C25.4,-25.3,26.7,-17.2,28.5,-9.7C30.4,-2.2,32.8,4.6,32.3,11.9C31.9,19.1,28.4,26.8,22.5,32.1C16.7,37.4,8.3,40.3,1.4,38.3C-5.4,36.3,-10.9,29.4,-17.9,24.4C-24.9,19.5,-33.4,16.6,-35.4,11.3C-37.4,6,-32.8,-1.6,-30.4,-10.1C-27.9,-18.6,-27.6,-28,-22.9,-31.5C-18.2,-34.9,-9.1,-32.2,-0.5,-31.5C8.1,-30.8,16.2,-32.1,20.8,-28.7Z" width="100%" height="100%" transform="translate(50 50)" stroke-width="0" style="transition: all 0.3s ease 0s;" stroke="url(#sw-gradient)"></path>
              </svg>