<svg class="animated" id="freepik_stories-email-capture" xmlns="http://www.w3.org/2000/svg" viewBox="0 0 750 500" version="1.1" xmlns:xlink="http://www.w3.org/1999/xlink" xmlns:svgjs="http://svgjs.com/svgjs"><style>svg#freepik_stories-email-capture:not(.animated) .animable {opacity: 0;}svg#freepik_stories-email-capture.animated #freepik--Email--inject-29 {animation: 3s Infinite  linear shake;animation-delay: 0s;}            @keyframes shake {                10%, 90% {                    transform: translate3d(-1px, 0, 0);                  }                  20%, 80% {                    transform: translate3d(2px, 0, 0);                  }                  30%, 50%, 70% {                    transform: translate3d(-4px, 0, 0);                  }                  40%, 60% {                    transform: translate3d(4px, 0, 0);                  }            }        </style><g id="freepik--background-complete--inject-29" class="animable" style="transform-origin: 480.325px 260.437px;"><g id="eler0jvs7d3x4"><rect x="602.15" y="232.63" width="38.36" height="25.86" style="fill: rgb(255, 255, 255); transform-origin: 621.33px 245.56px; transform: rotate(-32.4deg);" class="animable" id="eljr6079iy3p"></rect></g><path d="M644.46,246.2l-.27-.4-.75-1.15c-.66-1-1.62-2.49-2.83-4.38l-10.13-15.82.2.05-32.36,20.58c0,.06.1-.49,0-.25h0v0l0,0,0,0,.06.09.11.19.23.36.46.73c.31.48.62,1,.92,1.44l1.81,2.86c1.2,1.89,2.39,3.76,3.54,5.59l6.65,10.49-.23-.05,23.35-14.72,6.7-4.2,1.79-1.11.47-.28.17-.1-.14.1-.44.29-1.75,1.13L635.52,252,612.16,266.9,612,267l-.1-.14c-2.11-3.33-4.34-6.84-6.67-10.49l-3.54-5.58-1.82-2.86-.91-1.44-.46-.73-.24-.36-.11-.18-.06-.1,0,0v0h0c-.06.23.07-.32.06-.26l32.4-20.53.13-.08.08.13c4.2,6.67,7.64,12.16,10,16,1.18,1.88,2.1,3.36,2.74,4.39l.71,1.14C644.39,246.07,644.46,246.2,644.46,246.2Z" style="fill: rgb(224, 224, 224); transform-origin: 621.267px 245.625px;" id="eli0evhnyoqcg" class="animable"></path><path d="M630.6,224.37a2.64,2.64,0,0,1-.09.47c-.08.35-.19.79-.32,1.35-.31,1.2-.74,2.88-1.26,4.93-1.12,4.21-2.64,10-4.34,16.39l0,.15h-.16l-1.2-.12-17.67-1.76-5.35-.58-1.45-.18a3.18,3.18,0,0,1-.51-.08,2,2,0,0,1,.51,0l1.46.1,5.37.46,17.68,1.66,1.2.11-.2.14c1.74-6.41,3.3-12.16,4.45-16.35.57-2.05,1-3.71,1.37-4.91l.39-1.33A3.68,3.68,0,0,1,630.6,224.37Z" style="fill: rgb(224, 224, 224); transform-origin: 614.425px 236.015px;" id="elc3sbjtzer2a" class="animable"></path><path d="M662.94,176.78c1,3.55.26,6-1.89,6.62a2.31,2.31,0,0,1-3-1.62,4.82,4.82,0,0,1-3.54,3.45,5.61,5.61,0,0,1-3-10.79,4.84,4.84,0,0,1,4.75,1l-.59-2.12L657,173l2.22,7.93c.33,1.17,1,1.42,1.74,1.22,1.3-.36,1.68-2.2.89-5-1.38-4.91-5.82-7.18-10.88-5.77s-7.66,5.85-6.27,10.8,5.81,7.46,10.89,6a9.63,9.63,0,0,0,3.76-2l.64.92a10.65,10.65,0,0,1-4.1,2.19c-5.75,1.61-10.79-1.25-12.34-6.79s1.35-10.57,7.12-12.18S661.41,171.3,662.94,176.78Zm-5.79,1.87a4.14,4.14,0,1,0-2.79,5.31A4,4,0,0,0,657.15,178.65Z" style="fill: rgb(235, 235, 235); transform-origin: 653.258px 179.792px;" id="el66kpcc8a1fp" class="animable"></path><g id="elnw4sg2qlzer"><rect x="674.18" y="216.15" width="23.02" height="34.15" style="fill: rgb(235, 235, 235); transform-origin: 685.69px 233.225px; transform: rotate(-77.76deg);" class="animable" id="elgeuxucnn6fr"></rect></g><path d="M704.81,225.6a2.26,2.26,0,0,1-.35.24l-1.05.65-3.89,2.34-13,7.66-.12.08-.09-.11-.69-.83-10.09-12.17-3-3.71-.82-1a2.91,2.91,0,0,1-.26-.37,1.84,1.84,0,0,1,.32.32l.85,1,3.11,3.65c2.63,3.12,6.21,7.39,10.17,12.11l.68.82-.21,0,13-7.58,3.94-2.25,1.07-.59A1.62,1.62,0,0,1,704.81,225.6Z" style="fill: rgb(224, 224, 224); transform-origin: 688.13px 227.475px;" id="elpx32d1wdqjh" class="animable"></path><path d="M666.56,241a82.35,82.35,0,0,1,7.1-5.87,81.25,81.25,0,0,1,7.43-5.46,85.52,85.52,0,0,1-7.11,5.87A81.3,81.3,0,0,1,666.56,241Z" style="fill: rgb(224, 224, 224); transform-origin: 673.825px 235.335px;" id="elafdpdjhr0gq" class="animable"></path><path d="M699.93,248.09a11.8,11.8,0,0,1-1.3-2.09c-.75-1.33-1.74-3.17-2.82-5.22s-2-3.93-2.68-5.31a11.7,11.7,0,0,1-1-2.28,11.86,11.86,0,0,1,1.29,2.07c.74,1.33,1.75,3.18,2.82,5.24s2,3.94,2.7,5.32A11.58,11.58,0,0,1,699.93,248.09Z" style="fill: rgb(224, 224, 224); transform-origin: 696.03px 240.64px;" id="elduz0vjday6h" class="animable"></path><g id="elxzrw7210emr"><rect x="515.14" y="297.01" width="31.25" height="46.36" style="fill: rgb(255, 255, 255); transform-origin: 530.765px 320.19px; transform: rotate(-64.95deg);" class="animable" id="elzslakq2py7p"></rect></g><path d="M545.15,344.16s.07-.19.23-.53l.68-1.52,2.63-5.72c2.28-4.94,5.54-12,9.52-20.62l.09.25-42-19.59.3-.11h0l0,0,0,.06-.06.12-.11.24-.22.47-.44.94c-.29.63-.58,1.25-.88,1.88l-1.73,3.7L509.7,311c-2.21,4.74-4.35,9.29-6.37,13.6l-.1-.27,30.18,14.21,8.64,4.1,2.3,1.1.59.29.21.11-.2-.07-.58-.26-2.28-1-8.64-4-30.39-14.09-.19-.09.09-.18,6.34-13.62q1.67-3.56,3.38-7.24c.58-1.22,1.15-2.46,1.73-3.71.3-.62.59-1.24.88-1.87l.44-.94.22-.47.11-.24.06-.12,0-.06,0,0h0l.3-.11,42,19.67.17.07-.08.17c-4.07,8.61-7.41,15.69-9.75,20.63-1.15,2.43-2.06,4.34-2.69,5.65l-.71,1.47C545.23,344,545.15,344.16,545.15,344.16Z" style="fill: rgb(224, 224, 224); transform-origin: 530.73px 320.115px;" id="eljlxvpocfrh" class="animable"></path><path d="M558.38,315.85a2.57,2.57,0,0,1-.54.22l-1.58.54-5.85,1.92-19.51,6.25-.19.05-.08-.17-.67-1.29-9.69-19.16-2.89-5.82-.77-1.6a2.15,2.15,0,0,1-.23-.57,5.38,5.38,0,0,1,.32.53c.21.4.49.91.84,1.56l3,5.76,9.81,19.09.66,1.3-.27-.12,19.55-6.1,5.9-1.79,1.6-.47A3.23,3.23,0,0,1,558.38,315.85Z" style="fill: rgb(224, 224, 224); transform-origin: 537.38px 310.525px;" id="ele778uzvfiqw" class="animable"></path><path d="M503.08,324.78c-.06-.13,5-2.62,11.22-5.56s11.37-5.21,11.43-5.08-5,2.62-11.21,5.55S503.15,324.91,503.08,324.78Z" style="fill: rgb(224, 224, 224); transform-origin: 514.405px 319.46px;" id="elzue17o4ziv8" class="animable"></path><path d="M545.15,344.16a20.89,20.89,0,0,1-1-3.18c-.58-2-1.33-4.73-2.14-7.77s-1.5-5.81-2-7.82a22.82,22.82,0,0,1-.69-3.31,19.52,19.52,0,0,1,1,3.17c.57,2,1.33,4.73,2.14,7.79s1.51,5.82,2,7.84A21.92,21.92,0,0,1,545.15,344.16Z" style="fill: rgb(224, 224, 224); transform-origin: 542.235px 333.12px;" id="elo7duyxvqmlg" class="animable"></path><g id="elqmarcydajtq"><rect x="597.67" y="107.93" width="33.52" height="49.73" style="fill: rgb(235, 235, 235); transform-origin: 614.43px 132.795px; transform: rotate(-68.61deg);" class="animable" id="ellrosjx148op"></rect></g><path d="M643.7,126.26a2.84,2.84,0,0,1-.57.27l-1.65.69-6.13,2.46-20.46,8-.19.08-.11-.18-.79-1.34-11.69-19.84-3.49-6c-.39-.68-.69-1.23-.93-1.65a2.78,2.78,0,0,1-.29-.59,3.22,3.22,0,0,1,.37.54c.26.41.6.94,1,1.61.89,1.45,2.12,3.48,3.63,6,3,5.1,7.21,12.06,11.8,19.76l.8,1.34-.29-.1,20.51-7.87,6.18-2.32,1.69-.61A3.67,3.67,0,0,1,643.7,126.26Z" style="fill: rgb(224, 224, 224); transform-origin: 620.55px 122.96px;" id="elvmojmrdmwp" class="animable"></path><path d="M585.12,139.6c-.07-.13,5.14-3.13,11.63-6.7s11.82-6.36,11.89-6.23-5.14,3.12-11.64,6.69S585.19,139.72,585.12,139.6Z" style="fill: rgb(224, 224, 224); transform-origin: 596.88px 133.135px;" id="el8y6pmitxu8a" class="animable"></path><path d="M631.47,157.47a25.32,25.32,0,0,1-1.31-3.34c-.74-2.08-1.74-5-2.81-8.18s-2-6.11-2.66-8.23c-.33-1.06-.59-1.92-.76-2.52a3.24,3.24,0,0,1-.21-1,24.65,24.65,0,0,1,1.3,3.32c.74,2.08,1.74,5,2.81,8.19s2,6.14,2.68,8.26c.33,1.06.59,1.92.75,2.51A3.61,3.61,0,0,1,631.47,157.47Z" style="fill: rgb(224, 224, 224); transform-origin: 627.595px 145.835px;" id="elsqnce1f4bbo" class="animable"></path><g id="elfj73t3ouq7s"><rect x="602.73" y="308.48" width="49.73" height="33.52" style="fill: rgb(235, 235, 235); transform-origin: 627.595px 325.24px; transform: rotate(-11.73deg);" class="animable" id="elaugkz9qemyq"></rect></g><path d="M648.53,303.77a3.42,3.42,0,0,1-.32.54c-.26.37-.6.87-1,1.48l-3.79,5.41-12.76,17.89-.12.16-.18-.09-1.4-.69-20.63-10.23-6.22-3.15-1.68-.87a3.48,3.48,0,0,1-.58-.34,3.76,3.76,0,0,1,.62.25l1.72.8,6.29,3L629.16,328l1.4.69-.3.07L643.13,311l3.92-5.32,1.08-1.43A3.69,3.69,0,0,1,648.53,303.77Z" style="fill: rgb(224, 224, 224); transform-origin: 624.19px 316.51px;" id="elhqlorpcl4gn" class="animable"></path><path d="M606.76,346.94c-.13-.06,2.6-5.42,6.08-12s6.42-11.78,6.55-11.71-2.6,5.42-6.09,12S606.89,347,606.76,346.94Z" style="fill: rgb(224, 224, 224); transform-origin: 613.075px 335.085px;" id="el2exyhl95cnf" class="animable"></path><path d="M655.34,336.59a25.15,25.15,0,0,1-2.92-2.08c-1.76-1.34-4.17-3.22-6.82-5.32s-5-4-6.73-5.44c-.85-.7-1.54-1.28-2-1.7a3.6,3.6,0,0,1-.7-.68,24.64,24.64,0,0,1,2.9,2.07c1.76,1.34,4.18,3.22,6.84,5.32s5,4,6.75,5.45c.85.71,1.54,1.29,2,1.7S655.37,336.56,655.34,336.59Z" style="fill: rgb(224, 224, 224); transform-origin: 645.756px 328.98px;" id="el78v5dwvmhz8" class="animable"></path><g id="elkfve6om2e2l"><rect x="266.69" y="83.98" width="61.36" height="41.36" style="fill: rgb(235, 235, 235); transform-origin: 297.37px 104.66px; transform: rotate(-11.73deg);" class="animable" id="elryun5ml769"></rect></g><path d="M323.21,78.18a5.15,5.15,0,0,1-.41.66c-.31.47-.73,1.07-1.24,1.83l-4.68,6.67-15.73,22.07-.15.21-.23-.11-1.73-.85L273.59,96l-7.68-3.89-2.07-1.08a4,4,0,0,1-.71-.42,4.19,4.19,0,0,1,.76.31l2.12,1,7.77,3.72,25.53,12.46L301,109l-.38.1c6.22-8.61,11.81-16.33,15.89-22l4.83-6.57,1.33-1.76A3.49,3.49,0,0,1,323.21,78.18Z" style="fill: rgb(224, 224, 224); transform-origin: 293.17px 93.9px;" id="el803j1hty0sg" class="animable"></path><path d="M271.67,131.45c-.16-.08,3.2-6.69,7.5-14.76s7.92-14.54,8.08-14.46S284,108.92,279.74,117,271.82,131.53,271.67,131.45Z" style="fill: rgb(224, 224, 224); transform-origin: 279.46px 116.84px;" id="els9pjhnk36he" class="animable"></path><path d="M331.61,118.67a30.56,30.56,0,0,1-3.6-2.57c-2.18-1.65-5.15-4-8.42-6.55s-6.19-5-8.3-6.71c-1.06-.88-1.91-1.59-2.49-2.1s-.89-.81-.86-.85a31.08,31.08,0,0,1,3.58,2.56c2.17,1.65,5.16,4,8.43,6.57s6.22,5,8.33,6.72c1.06.88,1.9,1.59,2.48,2.1S331.64,118.64,331.61,118.67Z" style="fill: rgb(224, 224, 224); transform-origin: 319.775px 109.28px;" id="eled2e4nlibxe" class="animable"></path><path d="M284.35,425.79c-20.6-12-27.09-36.93-28.18-59.71-.18-3.8-.92-7.76.61-11.24s5.55-6.09,9.08-4.77c2.92,1.1,4.42,4.27,6.22,6.85a22.29,22.29,0,0,0,9.58,7.77c2.52,1.05,5.57,1.57,7.85.06,3.12-2.07,3.13-6.62,2.8-10.39q-.93-10.53-1.85-21.07c-.34-3.77-.66-7.62.22-11.3s3.2-7.21,6.7-8.51,8.11.41,9.17,4c.44,1.51.26,3.13.49,4.69s1.11,3.23,2.63,3.54,3-.87,4-2.07c3.58-4.12,5.82-9.25,7.89-14.33s4.06-10.26,7.25-14.71,7.81-8.13,13.18-8.88,11.4,2.12,13.2,7.31-.85,10.85-3.88,15.43a84.15,84.15,0,0,1-16.16,18.14c-1.12.94-2.33,2-2.67,3.39-.61,2.58,2,4.88,4.52,5.51,2.89.7,5.92.16,8.88.27s6.26,1.14,7.6,3.83c1.86,3.73-1,8-4,10.94a72.57,72.57,0,0,1-20.34,14.06c-2.69,1.24-5.53,2.37-7.61,4.5s-3.15,5.64-1.58,8.18,5.1,3.12,8,2.34,5.33-2.57,8-3.84c5-2.38,11.75-2.57,15.43,1.64,2.42,2.76,2.95,6.85,2.14,10.45a27.61,27.61,0,0,1-5,9.78c-7.51,10.43-17.5,19.14-29.18,24.3s-22.73,7.19-35,3.8" style="fill: rgb(235, 235, 235); transform-origin: 305.804px 356.51px;" id="elfypcfnxwc09" class="animable"></path><path d="M285.43,442.65a166.18,166.18,0,0,1,3.62-31.58,339,339,0,0,1,10.43-37.48q1.65-4.9,3.24-9.68c1.08-3.18,2.14-6.33,3.37-9.34a169.46,169.46,0,0,1,8.05-16.93c2.82-5.26,5.69-10.15,8.41-14.7s5.35-8.74,7.9-12.46a135.42,135.42,0,0,1,13.34-16.63c1.72-1.83,3.11-3.21,4.06-4.13l1.08-1a2.93,2.93,0,0,1,.39-.34,2.19,2.19,0,0,1-.34.39l-1,1.09c-.92.95-2.27,2.36-4,4.22a141.14,141.14,0,0,0-13.13,16.72c-2.52,3.73-5.11,7.93-7.82,12.48s-5.54,9.45-8.34,14.71a170.52,170.52,0,0,0-8,16.88c-1.22,3-2.27,6.12-3.34,9.3s-2.14,6.42-3.24,9.68a350.55,350.55,0,0,0-10.47,37.39,169.5,169.5,0,0,0-3.75,31.46" style="fill: rgb(224, 224, 224); transform-origin: 317.375px 365.54px;" id="elr2n6tzq34hf" class="animable"></path><path d="M306.28,354.52a8.3,8.3,0,0,1-.5-1.58c-.28-1-.64-2.52-1.06-4.38-.84-3.71-1.83-8.87-2.89-14.57s-2.12-10.84-3-14.52c-.44-1.85-.81-3.34-1.08-4.37a7.78,7.78,0,0,1-.35-1.62A7.31,7.31,0,0,1,298,315c.36,1,.8,2.48,1.31,4.31,1,3.67,2.15,8.81,3.22,14.52s2,10.71,2.69,14.6c.34,1.76.62,3.24.85,4.42A7.56,7.56,0,0,1,306.28,354.52Z" style="fill: rgb(224, 224, 224); transform-origin: 301.84px 334px;" id="elasnppmftvxp" class="animable"></path><path d="M354,341.49a9.45,9.45,0,0,1-1.91.39c-1.24.22-3,.51-5.22.95-4.4.85-10.44,2.22-17,4s-12.49,3.73-16.72,5.23c-2.12.74-3.82,1.38-5,1.81a10.09,10.09,0,0,1-1.86.62,11.33,11.33,0,0,1,1.75-.87c1.15-.52,2.83-1.23,4.93-2,4.2-1.62,10.09-3.61,16.71-5.44a172.77,172.77,0,0,1,17.13-3.84c2.22-.37,4-.6,5.27-.73A11.79,11.79,0,0,1,354,341.49Z" style="fill: rgb(224, 224, 224); transform-origin: 330.145px 347.989px;" id="elt85jte3t83d" class="animable"></path><path d="M289.57,410.13a2.9,2.9,0,0,1-.38-.57l-1-1.68c-.84-1.47-2-3.63-3.39-6.31-2.8-5.36-6.42-12.89-10.31-21.25S267.08,364.4,264.4,359l-3.19-6.4c-.34-.7-.63-1.27-.86-1.75a2.63,2.63,0,0,1-.26-.63s.16.18.38.57.59,1,1,1.68c.84,1.47,2,3.62,3.39,6.31,2.79,5.36,6.42,12.89,10.31,21.26s7.44,15.91,10.11,21.32c1.32,2.63,2.39,4.8,3.19,6.41.35.69.63,1.27.86,1.74A2.58,2.58,0,0,1,289.57,410.13Z" style="fill: rgb(224, 224, 224); transform-origin: 274.83px 380.175px;" id="elg67a0bnfdy5" class="animable"></path><path d="M352.3,384.09a3,3,0,0,1-.62.32l-1.82.78-6.72,2.8c-5.67,2.36-13.46,5.72-22.07,9.44s-16.44,7-22.16,9.26c-2.86,1.13-5.19,2-6.8,2.6l-1.87.65a2.54,2.54,0,0,1-.67.19,2.49,2.49,0,0,1,.62-.32L292,409l6.71-2.8c5.67-2.36,13.47-5.72,22.08-9.45s16.44-7,22.16-9.26c2.86-1.12,5.18-2,6.8-2.59l1.87-.66A2.71,2.71,0,0,1,352.3,384.09Z" style="fill: rgb(224, 224, 224); transform-origin: 320.935px 397.11px;" id="el6g9g0n8h42r" class="animable"></path></g><g id="freepik--Floor--inject-29" class="animable" style="transform-origin: 380.595px 441.93px;"><path d="M700.63,441.93c0,.15-143.31.26-320,.26s-320.07-.11-320.07-.26,143.27-.26,320.07-.26S700.63,441.79,700.63,441.93Z" style="fill: rgb(38, 50, 56); transform-origin: 380.595px 441.93px;" id="ele8tmurvl99e" class="animable"></path></g><g id="freepik--Character--inject-29" class="animable" style="transform-origin: 218.765px 276.553px;"><path d="M174.33,111a43.19,43.19,0,0,0-7.65-8.82c-1.3-1.14-2.92-2.29-4.81-2.08a4.9,4.9,0,0,0-3.45,2.25,9.48,9.48,0,0,0-1.24,3.71,8,8,0,0,1-.7,2.58,3.05,3.05,0,0,1-2.25,1.64,12.55,12.55,0,0,1-2-.18,4.56,4.56,0,0,0-4.37,3.77c-.32,1.92-.09,2.93,0,5.56Z" style="fill: #13549A; transform-origin: 161.013px 109.753px;" id="el53cfaa640hx" class="animable"></path><g id="el3jlc6aocov2"><g style="opacity: 0.3; transform-origin: 161.013px 109.753px;" class="animable" id="el4aagnbr1j0n"><path d="M174.33,111a43.19,43.19,0,0,0-7.65-8.82c-1.3-1.14-2.92-2.29-4.81-2.08a4.9,4.9,0,0,0-3.45,2.25,9.48,9.48,0,0,0-1.24,3.71,8,8,0,0,1-.7,2.58,3.05,3.05,0,0,1-2.25,1.64,12.55,12.55,0,0,1-2-.18,4.56,4.56,0,0,0-4.37,3.77c-.32,1.92-.09,2.93,0,5.56Z" id="elqwwylcwsnkl" class="animable" style="transform-origin: 161.013px 109.753px;"></path></g></g><path d="M147.67,116.29s11.72-7.81,24.46-8.37l1,1.36-25.26,8.84Z" style="fill: rgb(38, 50, 56); transform-origin: 160.4px 113.02px;" id="elcp5o1bwu2h5" class="animable"></path><path d="M148,116.62a38.18,38.18,0,0,0-6.17,3.64,9.75,9.75,0,0,0-3.17,3.41,2.33,2.33,0,0,0,.3,2.44c1.51,1.37,5.55,2,12.32,1,9-1.25,8.09-3.65,16.93-5.81,3.15-.77,6.86-1,10-2s6.09-4.08,8.34-6.42a16.87,16.87,0,0,0,1.15-1.7c1.14-1.51.05-2.51-.39-3a3.14,3.14,0,0,0-2.39-.83c-9.56-.4-26.62,4.06-37,9.31" style="fill: #13549A; transform-origin: 163.324px 117.462px;" id="eljaaiy8xfqmr" class="animable"></path><g id="el4r4mqe6z3nw"><g style="opacity: 0.2; transform-origin: 156.694px 120.444px;" class="animable" id="elsne71763hs"><path d="M165.76,113.34c-.57,0-9.89,3.33-14,6-3.5,2.32-6.67,4.22-8.18,8.13a28,28,0,0,0,7.15-.38A80.52,80.52,0,0,0,167,123.61a4.18,4.18,0,0,0,2.34-1.38,3.4,3.4,0,0,0,.44-2.15,8.52,8.52,0,0,0-4.18-6.72" id="el3sc4fcl9ze8" class="animable" style="transform-origin: 156.694px 120.444px;"></path></g></g><path d="M153.52,163.54l18.23-1.46c.12-2.13,0-10.36,0-10.36s7.58-1.18,7.68-8.77-1.23-25-1.23-25h0a26.35,26.35,0,0,0-26.49,3.33l-1.12.86Z" style="fill: rgb(183, 136, 118); transform-origin: 165.013px 139.673px;" id="elzu9xsd1wp5" class="animable"></path><path d="M171.73,151.61a17.63,17.63,0,0,1-9.89-2.81s2.34,5.46,9.91,4.77Z" style="fill: rgb(170, 101, 80); transform-origin: 166.795px 151.215px;" id="el101fgh8mvxbe" class="animable"></path><path d="M151.49,130c-.12-.06-5.21-1.54-5,3.65s5.34,3.95,5.34,3.8S151.49,130,151.49,130Z" style="fill: rgb(183, 136, 118); transform-origin: 149.157px 133.723px;" id="elv9rrswraxb" class="animable"></path><path d="M150.14,135.53s-.08.07-.24.14a.87.87,0,0,1-.67,0,2.25,2.25,0,0,1-1.1-2,3.06,3.06,0,0,1,.21-1.31,1.07,1.07,0,0,1,.66-.71.47.47,0,0,1,.54.23c.08.14.05.25.07.26s.11-.1.06-.31a.59.59,0,0,0-.21-.32.69.69,0,0,0-.5-.11,1.27,1.27,0,0,0-.92.83,3,3,0,0,0-.27,1.46,2.34,2.34,0,0,0,1.39,2.19.93.93,0,0,0,.82-.16C150.14,135.66,150.16,135.54,150.14,135.53Z" style="fill: rgb(170, 101, 80); transform-origin: 148.955px 133.653px;" id="el0pwd89kbcec" class="animable"></path><path d="M176.5,129.84a1.07,1.07,0,0,1-1,1.09,1,1,0,0,1-1.12-1,1.08,1.08,0,0,1,1-1.09A1,1,0,0,1,176.5,129.84Z" style="fill: rgb(38, 50, 56); transform-origin: 175.44px 129.885px;" id="elpb02pwdju4" class="animable"></path><path d="M176.74,128.62c-.14.14-1-.47-2.12-.46s-2,.58-2.15.44.08-.32.45-.59a3,3,0,0,1,1.72-.53,2.83,2.83,0,0,1,1.69.55C176.68,128.3,176.81,128.56,176.74,128.62Z" style="fill: rgb(38, 50, 56); transform-origin: 174.591px 128.06px;" id="elm9i5evk5i3b" class="animable"></path><path d="M165.09,130.11A1.08,1.08,0,0,1,164,131.2a1,1,0,0,1-1.11-1,1.08,1.08,0,0,1,1-1.1A1,1,0,0,1,165.09,130.11Z" style="fill: rgb(38, 50, 56); transform-origin: 163.99px 130.143px;" id="elmj8rj0m0gv" class="animable"></path><path d="M165.28,128.84c-.13.14-1-.47-2.12-.47s-2,.59-2.15.45.08-.32.45-.59a3,3,0,0,1,1.72-.53,2.87,2.87,0,0,1,1.69.54C165.22,128.52,165.35,128.77,165.28,128.84Z" style="fill: rgb(38, 50, 56); transform-origin: 163.131px 128.28px;" id="el0dslt7p3qax" class="animable"></path><path d="M169.51,137.48a8.25,8.25,0,0,1,1.89-.34c.3,0,.58-.09.63-.29a1.55,1.55,0,0,0-.19-.89L171,133.7a38.81,38.81,0,0,1-2-5.93,38.66,38.66,0,0,1,2.45,5.76l.84,2.28a1.72,1.72,0,0,1,.16,1.16.73.73,0,0,1-.49.44,2.06,2.06,0,0,1-.51.07A7.52,7.52,0,0,1,169.51,137.48Z" style="fill: rgb(38, 50, 56); transform-origin: 170.744px 132.656px;" id="el4ka71fi4vnx" class="animable"></path><path d="M166.08,138.29c.19,0,.19,1.25,1.28,2.15s2.43.76,2.44.94-.31.24-.87.26a3.14,3.14,0,0,1-2-.71,2.74,2.74,0,0,1-1-1.81C165.85,138.59,166,138.28,166.08,138.29Z" style="fill: rgb(38, 50, 56); transform-origin: 167.854px 139.965px;" id="eluq41mop2g0j" class="animable"></path><path d="M165.58,124.27c-.11.32-1.28.17-2.64.33s-2.48.54-2.66.25c-.08-.13.11-.43.56-.74a4.45,4.45,0,0,1,2-.69,4.33,4.33,0,0,1,2.07.25C165.38,123.87,165.63,124.12,165.58,124.27Z" style="fill: rgb(38, 50, 56); transform-origin: 162.924px 124.172px;" id="elnyot2vn9ue" class="animable"></path><path d="M176.31,125.25c-.2.26-1,0-2,0s-1.79.18-2-.1,0-.4.4-.65a2.88,2.88,0,0,1,3.18.1C176.29,124.84,176.4,125.12,176.31,125.25Z" style="fill: rgb(38, 50, 56); transform-origin: 174.283px 124.718px;" id="elqtxupcfz67" class="animable"></path><path d="M191.42,195.79l1.72-26.56c-6.06-6-9.24-8.71-17.69-9.71-1.29-.15-2.32-.25-3.09-.35l-.05-4.94a9,9,0,0,0-8.58,5.14c-3.71-5.91-11.33-5.1-11.33-5.1l.35,4.87c-3,.13-5.5,1.05-8.05,1.54-8,1.55-13.85,7.41-15.46,12.82L137,194.59l-.32,19.48v7.18l.05,26.38h57.71C194.58,241.34,191.42,195.79,191.42,195.79Z" style="fill: rgb(224, 224, 224); transform-origin: 161.842px 200.924px;" id="elb7zulq9htkp" class="animable"></path><path d="M181.87,436.54l.06-10.12-19-.23L162.72,441l1.18.09c5.23.36,26.62,1.43,30.13.42C197.94,440.37,181.87,436.54,181.87,436.54Z" style="fill: #13549A; transform-origin: 178.682px 434.061px;" id="el7byc6kyrchl" class="animable"></path><g id="elchwzolaym1r"><g style="opacity: 0.4; transform-origin: 166.175px 438.18px;" class="animable" id="el103xy3eh1c8h"><path d="M169.6,440.94a6.59,6.59,0,0,0-2.37-4.08,6.4,6.4,0,0,0-4.42-1.43l-.06,5.3Z" id="el6k97e5z0a42" class="animable" style="transform-origin: 166.175px 438.18px;"></path></g></g><g id="eldw50hf84aop"><g style="opacity: 0.4; transform-origin: 178.711px 440.283px;" class="animable" id="elz2e446rwuo"><path d="M189.72,438.69s5.63,1.7,4.92,2.62-22.38.65-31.92-.31l0-.42,25.25.54S188.62,438.73,189.72,438.69Z" id="el8xjcagq314" class="animable" style="transform-origin: 178.711px 440.283px;"></path></g></g><path d="M162.46,440.56l.33,0,.93.07,3.45.19c2.91.15,6.93.29,11.38.35s8.47,0,11.38,0l3.45-.1.94,0,.33,0a1.25,1.25,0,0,0-.33,0h-.94l-3.45,0c-2.91,0-6.94,0-11.38,0s-8.46-.18-11.38-.28l-3.44-.12-.94,0Z" style="fill: rgb(38, 50, 56); transform-origin: 178.555px 440.878px;" id="elfa9bd8t9yws" class="animable"></path><path d="M188,441.41a7.74,7.74,0,0,1,.66-1.64,8.15,8.15,0,0,1,1.19-1.3,3.07,3.07,0,0,0-1.85,2.94Z" style="fill: rgb(38, 50, 56); transform-origin: 188.924px 439.94px;" id="elrkopct0zgwb" class="animable"></path><path d="M182.45,438.5c.05,0,.32-.29.6-.72s.47-.81.42-.85-.33.29-.61.72S182.39,438.47,182.45,438.5Z" style="fill: rgb(38, 50, 56); transform-origin: 182.958px 437.713px;" id="el8qbwdt5hn2g" class="animable"></path><path d="M180.92,437.67c0,.05.34-.15.67-.44s.57-.56.53-.61-.35.15-.68.44S180.88,437.62,180.92,437.67Z" style="fill: rgb(38, 50, 56); transform-origin: 181.52px 437.145px;" id="elh4pndadl834" class="animable"></path><path d="M180,435.87a2.32,2.32,0,0,0,1,.13c.55,0,1,0,1-.09a2.35,2.35,0,0,0-1-.14C180.42,435.76,180,435.8,180,435.87Z" style="fill: rgb(38, 50, 56); transform-origin: 181px 435.886px;" id="elvnhh5ck0qn" class="animable"></path><path d="M179.66,434.6a1.81,1.81,0,0,0,1.1.33,1.94,1.94,0,0,0,1.14-.13,5.23,5.23,0,0,0-1.12-.09A5.76,5.76,0,0,0,179.66,434.6Z" style="fill: rgb(38, 50, 56); transform-origin: 180.78px 434.782px;" id="elx5o5iga64z" class="animable"></path><path d="M183.11,436.85a3.4,3.4,0,0,0,1.22,0,6.71,6.71,0,0,0,1.3-.27,3.72,3.72,0,0,0,.75-.29.69.69,0,0,0,.3-.38.47.47,0,0,0-.17-.49,2.24,2.24,0,0,0-2.78.62,2.27,2.27,0,0,0-.41.81.7.7,0,0,0,0,.33,3.37,3.37,0,0,1,.57-1,2.16,2.16,0,0,1,1-.66,1.88,1.88,0,0,1,1.45.12c.19.14.11.37-.1.5a4.53,4.53,0,0,1-.69.28,9.14,9.14,0,0,1-1.26.31C183.58,436.82,183.11,436.82,183.11,436.85Z" style="fill: rgb(38, 50, 56); transform-origin: 184.902px 436.179px;" id="el9mo2zwjpn5" class="animable"></path><path d="M183.43,436.92a1.28,1.28,0,0,0,.15-.85,2,2,0,0,0-.32-.89,1.27,1.27,0,0,0-1-.64.49.49,0,0,0-.38.56,1.29,1.29,0,0,0,.2.55,3,3,0,0,0,.56.74,1.91,1.91,0,0,0,.69.51s-.24-.22-.57-.62a4.61,4.61,0,0,1-.5-.73c-.16-.26-.27-.73,0-.78s.62.28.8.53a2.1,2.1,0,0,1,.34.8A7.5,7.5,0,0,1,183.43,436.92Z" style="fill: rgb(38, 50, 56); transform-origin: 182.736px 435.73px;" id="elewzcoceokfu" class="animable"></path><path d="M162.91,435.38a13.76,13.76,0,0,1,1.4.07,6,6,0,0,1,3.05,1.3,6.12,6.12,0,0,1,1.87,2.72c.28.82.3,1.36.34,1.36s0-.14,0-.38a5.33,5.33,0,0,0-.19-1,5.8,5.8,0,0,0-5.06-4.14,5.55,5.55,0,0,0-1,0A1.22,1.22,0,0,0,162.91,435.38Z" style="fill: rgb(38, 50, 56); transform-origin: 166.249px 438.059px;" id="eltjcuqic8x3" class="animable"></path><path d="M165,427.51a69,69,0,0,0-.2,7.79,31.78,31.78,0,0,0,.22-3.89A34.77,34.77,0,0,0,165,427.51Z" style="fill: rgb(38, 50, 56); transform-origin: 164.916px 431.405px;" id="elmjt19cg6fkp" class="animable"></path><path d="M172,439.12a10.67,10.67,0,0,0,2.77.31,10.9,10.9,0,0,0,2.77-.19c0-.07-1.24,0-2.77,0S172,439.05,172,439.12Z" style="fill: rgb(38, 50, 56); transform-origin: 174.77px 439.277px;" id="elfpzvk139adq" class="animable"></path><path d="M168.3,439.07c-.05,0,.09.26.22.54s.18.54.25.54.1-.3,0-.63S168.34,439,168.3,439.07Z" style="fill: rgb(38, 50, 56); transform-origin: 168.562px 439.603px;" id="el66o098zqns" class="animable"></path><path d="M166.92,437.3c0,.05.07.25.26.45s.39.33.44.28-.08-.24-.27-.44S167,437.26,166.92,437.3Z" style="fill: rgb(38, 50, 56); transform-origin: 167.275px 437.667px;" id="el6u5x475xc" class="animable"></path><path d="M164.92,436.48c0,.07.27.07.54.17s.48.25.53.21-.1-.31-.45-.43S164.9,436.42,164.92,436.48Z" style="fill: rgb(38, 50, 56); transform-origin: 165.459px 436.621px;" id="elm9rn9r3gdt" class="animable"></path><path d="M163.5,436.09c0,.06.08.16.24.22s.3.06.33,0-.09-.16-.24-.22S163.52,436,163.5,436.09Z" style="fill: rgb(38, 50, 56); transform-origin: 163.787px 436.194px;" id="elanbbhaz4b4s" class="animable"></path><path d="M124.26,430.11l-1.81,7.59S110,453.83,106.2,453c-2.51-.52.57-4.73,5.3-17l1-5.06Z" style="fill: #13549A; transform-origin: 114.782px 441.57px;" id="el0c2qf4hw97h" class="animable"></path><path d="M105.69,450.66a1.8,1.8,0,0,0,.67.63,2.27,2.27,0,0,0,2.37-.33,68.3,68.3,0,0,0,6.18-5.85c2.3-2.42,4.23-4.74,5.59-6.45.61-.78,1.13-1.46,1.59-2l.43-.56c.1-.12.15-.19.16-.18a1.65,1.65,0,0,1-.12.21l-.4.58c-.35.5-.87,1.22-1.53,2.09a81.46,81.46,0,0,1-5.55,6.5,59.16,59.16,0,0,1-6.26,5.83,2.81,2.81,0,0,1-1.4.52,2.09,2.09,0,0,1-1.1-.24,1.42,1.42,0,0,1-.53-.49A1,1,0,0,1,105.69,450.66Z" style="fill: rgb(38, 50, 56); transform-origin: 114.185px 443.786px;" id="elyi6x3f0b1p" class="animable"></path><path d="M107.45,445.47a2,2,0,0,1,1-.11,5.37,5.37,0,0,1,2.34.81,4.31,4.31,0,0,1,1.71,1.8,2.12,2.12,0,0,1,.26,1s-.11-.37-.41-.92a4.58,4.58,0,0,0-1.67-1.68,6.08,6.08,0,0,0-2.24-.84C107.84,445.43,107.46,445.51,107.45,445.47Z" style="fill: rgb(38, 50, 56); transform-origin: 110.105px 447.155px;" id="el2kfqaoxtcjh" class="animable"></path><path d="M119.21,441.69a1.22,1.22,0,0,1-.15-.37,5.4,5.4,0,0,1-.24-1,5.66,5.66,0,0,1,.57-3.45,5.44,5.44,0,0,1,2.51-2.44,4,4,0,0,1,1-.31,1.28,1.28,0,0,1,.39,0,10.39,10.39,0,0,0-1.35.48,5.59,5.59,0,0,0-2.38,2.4,5.88,5.88,0,0,0-.62,3.33C119.07,441.15,119.25,441.68,119.21,441.69Z" style="fill: rgb(38, 50, 56); transform-origin: 121.023px 437.898px;" id="elm96um86ffke" class="animable"></path><path d="M123.46,431.4c.06,0-.22,1.08-.45,2.42a8.45,8.45,0,0,1-.65,2.39s.2-1.09.43-2.43A8.06,8.06,0,0,1,123.46,431.4Z" style="fill: rgb(38, 50, 56); transform-origin: 122.914px 433.805px;" id="eleb4xz1mmnlb" class="animable"></path><path d="M111.28,437.14a2.81,2.81,0,0,1,1.59,0,3,3,0,0,1,1.44.68c0,.06-.66-.27-1.49-.46S111.28,437.2,111.28,437.14Z" style="fill: rgb(38, 50, 56); transform-origin: 112.795px 437.426px;" id="elnsgirwbd0i" class="animable"></path><path d="M111,438.44a1.92,1.92,0,0,1,1.34-.05,2,2,0,0,1,1.18.64c0,.06-.53-.26-1.23-.42S111,438.5,111,438.44Z" style="fill: rgb(38, 50, 56); transform-origin: 112.26px 438.665px;" id="el1ro0m4c4xvci" class="animable"></path><path d="M110,440.07a1.65,1.65,0,0,1,1.39-.18,1.7,1.7,0,0,1,1.18.76,5.66,5.66,0,0,0-1.23-.54A5.14,5.14,0,0,0,110,440.07Z" style="fill: rgb(38, 50, 56); transform-origin: 111.285px 440.231px;" id="el4v5aitqcjg9" class="animable"></path><path d="M112.13,436.59s.58-.15,1.46-.5a10,10,0,0,0,1.5-.72,7.57,7.57,0,0,0,.82-.53,1,1,0,0,0,.52-.75c0-.3-.37-.46-.66-.38a1.68,1.68,0,0,0-.76.51c-.46.43-.85.84-1.17,1.19-.63.71-1,1.19-1,1.17s.06-.14.21-.36.38-.54.68-.91.69-.8,1.14-1.24a2,2,0,0,1,.86-.58.73.73,0,0,1,.94.59,1.26,1.26,0,0,1-.62.94,9,9,0,0,1-.85.53,10.29,10.29,0,0,1-1.54.69,7.94,7.94,0,0,1-1.1.3A1.65,1.65,0,0,1,112.13,436.59Z" style="fill: rgb(38, 50, 56); transform-origin: 114.4px 435.023px;" id="elnicn1j7jbu" class="animable"></path><path d="M112.78,436.43s-.08-.53-.22-1.38a5.78,5.78,0,0,0-.43-1.44,3,3,0,0,0-.46-.73c-.19-.21-.48-.4-.71-.26s-.26.47-.23.75a3.26,3.26,0,0,0,.24.84,5,5,0,0,0,.81,1.25c.58.64,1,.94,1,1a1.3,1.3,0,0,1-.32-.19,5.5,5.5,0,0,1-.79-.68,4.64,4.64,0,0,1-.89-1.27,3.86,3.86,0,0,1-.27-.89,1,1,0,0,1,.34-1,.83.83,0,0,1,1,.31,3.08,3.08,0,0,1,.49.8,5.07,5.07,0,0,1,.39,1.49,7.86,7.86,0,0,1,.08,1C112.8,436.3,112.8,436.43,112.78,436.43Z" style="fill: rgb(38, 50, 56); transform-origin: 111.647px 434.415px;" id="elvrqhzvh59u" class="animable"></path><g id="el1o9b7gk1lj1"><g style="opacity: 0.4; transform-origin: 114.324px 443.534px;" class="animable" id="elw1caam643l"><path d="M122.45,437.7l.87-3.65s-3,.56-3.83,2.84a9.51,9.51,0,0,0-.59,3.9l-6.62,7.12s-1.66-3.24-4.66-2.46c0,0-2.37,5.2-2.29,6.5s1.58,1.15,2.12.9a26.52,26.52,0,0,0,5.93-4.67C116.88,444.54,120.75,439.93,122.45,437.7Z" id="el2g85yk8dbnd" class="animable" style="transform-origin: 114.324px 443.534px;"></path></g></g><path d="M266.48,186.25a1.84,1.84,0,0,1,1.11,1.21c.46,1.7,1.27,5.32,0,6.07-.56.35-8.19.65-9.06.3s-5.09.41-5.09.41l-.72-4.78,11.37-4.1Z" style="fill: rgb(183, 136, 118); transform-origin: 260.496px 189.8px;" id="el4zmrthtmbpx" class="animable"></path><path d="M285.69,201.39H273.85a12.3,12.3,0,0,1,0-24.6h11.84v5H273.85a7.27,7.27,0,0,0,0,14.54h11.84Z" style="fill: rgb(38, 50, 56); transform-origin: 273.62px 189.09px;" id="el6d627fgzcam" class="animable"></path><path d="M252.76,186.76l3.11-.81s1.24-3.44,3.07-3.76,8.88,1.83,8.88,1.83-.65,1.32-3.81,1.16l-2,.18s.17,1.69-2.39,3.59c0,0-5.86,1.9-6.13,2S252.76,186.76,252.76,186.76Z" style="fill: rgb(183, 136, 118); transform-origin: 260.29px 186.555px;" id="el20fz3d2p4vh" class="animable"></path><path d="M267.07,186.67a32.72,32.72,0,0,0-4.51.75,1.86,1.86,0,0,0-.75.45.8.8,0,0,0-.17.82c.17.37.64.46,1,.48a12,12,0,0,0,2.54-.09,9.68,9.68,0,0,0-2.63.53,1.9,1.9,0,0,0-.82.54.91.91,0,0,0-.15.92c.21.47.84.54,1.35.54a23.5,23.5,0,0,0,2.78-.23c-.83.14-1.65.33-2.46.55a1.13,1.13,0,0,0-.77.48.8.8,0,0,0,.4,1,2.35,2.35,0,0,0,1.15.19c1.36,0,2,0,3.56-.06" style="fill: rgb(183, 136, 118); transform-origin: 264.553px 190.139px;" id="ela50zgd14w5t" class="animable"></path><path d="M260.59,192.27c-.08,0,0-.43-.07-1.1a4.89,4.89,0,0,0-.92-2.43l-.16-.21.22-.16a6.52,6.52,0,0,0,.55-.41,4.75,4.75,0,0,0,1.64-2.54c.13-.78-.16-1.24-.07-1.28s.48.39.44,1.32a4.53,4.53,0,0,1-1.67,2.89,5.86,5.86,0,0,1-.6.45l.06-.36a4.44,4.44,0,0,1,.85,2.72C260.83,191.88,260.64,192.28,260.59,192.27Z" style="fill: rgb(170, 101, 80); transform-origin: 260.831px 188.204px;" id="elredoiu3pp3o" class="animable"></path><path d="M268.25,191a5.54,5.54,0,0,1-2.24.56,5.23,5.23,0,0,1-2.29,0A5.32,5.32,0,0,1,266,191,5.11,5.11,0,0,1,268.25,191Z" style="fill: rgb(170, 101, 80); transform-origin: 265.985px 191.281px;" id="elkvfim15sjmp" class="animable"></path><path d="M267.91,188.8a11,11,0,0,1-4.73.58,5.53,5.53,0,0,1,2.33-.55A5.72,5.72,0,0,1,267.91,188.8Z" style="fill: rgb(170, 101, 80); transform-origin: 265.545px 189.059px;" id="el9sb7sr9m758" class="animable"></path><polygon points="194.67 242.62 187.4 432.71 157.86 433.33 162.76 268.62 129.54 434.59 101.46 434.59 137.64 243.01 194.67 242.62" style="fill: rgb(38, 50, 56); transform-origin: 148.065px 338.605px;" id="elkac077wtaf" class="animable"></polygon><path d="M169.57,249.54a18.4,18.4,0,0,1-.34,3.13c-.28,1.93-.69,4.58-1.18,7.5a30.09,30.09,0,0,1-.85,4.13,5.76,5.76,0,0,1-1.93,2.9,4.53,4.53,0,0,1-2.14,1,2,2,0,0,1-.86,0,5.32,5.32,0,0,0,4.48-4,38.15,38.15,0,0,0,.78-4.06c.49-2.93,1-5.57,1.34-7.48A19.4,19.4,0,0,1,169.57,249.54Z" style="fill: rgb(69, 90, 100); transform-origin: 165.92px 258.893px;" id="elf0f3an5vei" class="animable"></path><path d="M163.42,250.45c.07.05-.17.35,0,.85a1,1,0,0,0,.49.64.81.81,0,0,0,.88-.18.82.82,0,0,0,.29-.85,1,1,0,0,0-.57-.57c-.48-.2-.81,0-.85-.07s.27-.43,1-.28a1.33,1.33,0,0,1,.91.76,1.28,1.28,0,0,1-.4,1.41,1.25,1.25,0,0,1-1.44.2,1.33,1.33,0,0,1-.64-1C163,250.66,163.4,250.39,163.42,250.45Z" style="fill: rgb(69, 90, 100); transform-origin: 164.359px 251.228px;" id="elzkg3gxyzsyo" class="animable"></path><path d="M147.56,253.16a5.53,5.53,0,0,1,.57-5.28c.13.07-.29,1.19-.44,2.63S147.71,253.13,147.56,253.16Z" style="fill: rgb(69, 90, 100); transform-origin: 147.646px 250.52px;" id="ellzy0tebd67" class="animable"></path><path d="M151.11,252.93a6.47,6.47,0,0,1,.39-5.5,24.79,24.79,0,0,1-.29,2.75A22.73,22.73,0,0,1,151.11,252.93Z" style="fill: rgb(69, 90, 100); transform-origin: 151.087px 250.18px;" id="elxn3meujlkm" class="animable"></path><path d="M181.64,253.71a16.51,16.51,0,0,1,.17-2.86,18.34,18.34,0,0,1,.12-2.85,7.76,7.76,0,0,1-.29,5.71Z" style="fill: rgb(69, 90, 100); transform-origin: 181.987px 250.855px;" id="elvop9b5tf29c" class="animable"></path><path d="M185.5,253.5c-.14-.07.32-1.31.42-2.9s-.16-2.89,0-2.93a4.6,4.6,0,0,1,.54,3A4.7,4.7,0,0,1,185.5,253.5Z" style="fill: rgb(69, 90, 100); transform-origin: 185.996px 250.585px;" id="el6gyq5mmacnj" class="animable"></path><path d="M133.35,327.65a11,11,0,0,1-.25-2.66,22.85,22.85,0,0,1,1.61-7.47c1.07-3.14,3-6.82,3.62-11.5a12.11,12.11,0,0,0-1.21-7.25c-.6-1.18-1.38-2.31-2.09-3.54a11,11,0,0,1-1.56-4.11,10.13,10.13,0,0,1,.62-4.57c.53-1.48,1.23-2.91,1.85-4.4a15.18,15.18,0,0,0,1.29-4.71,25.77,25.77,0,0,0-.15-5.1,50.87,50.87,0,0,1-.43-5.33,29.31,29.31,0,0,1,4.73-16.2,28.44,28.44,0,0,1,3.76-4.69,24.86,24.86,0,0,1,2.29-2,6.5,6.5,0,0,1,2.85-1.35,4.81,4.81,0,0,1,3.15.6,7.94,7.94,0,0,1,2.39,2.15,11,11,0,0,1,1.54,2.83,16.75,16.75,0,0,1,.89,3.11,24.1,24.1,0,0,1-1.45,12.94,17,17,0,0,1-3.45,5.78,8.77,8.77,0,0,1-2.8,2,6.28,6.28,0,0,1-3.45.49,8,8,0,0,1-5.48-4,11.1,11.1,0,0,1-1.44-6.57,26.47,26.47,0,0,1,1.4-6.47,63.43,63.43,0,0,1,2.28-6.09,13.94,13.94,0,0,1,3.81-5.17,8.45,8.45,0,0,1,6-1.93,6.66,6.66,0,0,1,3,1.13,8.84,8.84,0,0,1,2.15,2.25,15.24,15.24,0,0,1,2.14,5.63A27.5,27.5,0,0,1,156,272.78a15,15,0,0,1-8.09,6,7.4,7.4,0,0,1-4.79-.35,8.21,8.21,0,0,1-3.49-3,17.39,17.39,0,0,1-2.51-8.1,26.87,26.87,0,0,1,.39-7.58,30.87,30.87,0,0,1,1.95-6.3,29.8,29.8,0,0,1,2.7-4.84,26,26,0,0,1,5.17-5.65,17.24,17.24,0,0,1,1.59-1.19l.56-.38s-.17.15-.53.42-.92.64-1.56,1.23a27.18,27.18,0,0,0-5.07,5.68,31.36,31.36,0,0,0-2.63,4.83,30.69,30.69,0,0,0-1.89,6.26,26.3,26.3,0,0,0-.35,7.49,17,17,0,0,0,2.49,7.92,7.76,7.76,0,0,0,3.33,2.87,7,7,0,0,0,4.54.31,14.63,14.63,0,0,0,7.85-5.83,27.11,27.11,0,0,0,4.73-21,14.53,14.53,0,0,0-2.07-5.45,8.31,8.31,0,0,0-2-2.12,6.11,6.11,0,0,0-2.73-1,7.92,7.92,0,0,0-5.6,1.83,13.35,13.35,0,0,0-3.65,5,60.92,60.92,0,0,0-2.26,6,25.93,25.93,0,0,0-1.38,6.34,10.71,10.71,0,0,0,1.37,6.27,7.45,7.45,0,0,0,5.11,3.72,6.73,6.73,0,0,0,5.8-2.34,16.59,16.59,0,0,0,3.35-5.61,23.6,23.6,0,0,0,1.43-12.66,16.54,16.54,0,0,0-.86-3,10.23,10.23,0,0,0-1.47-2.7,7.27,7.27,0,0,0-2.23-2,4.34,4.34,0,0,0-2.83-.55c-2,.34-3.45,1.9-4.87,3.25a28,28,0,0,0-3.71,4.6,29.49,29.49,0,0,0-4.2,10.51,28.69,28.69,0,0,0-.48,5.43,48.58,48.58,0,0,0,.41,5.29,27.28,27.28,0,0,1,.14,5.18,15.59,15.59,0,0,1-1.34,4.83c-.64,1.49-1.34,2.92-1.85,4.37a9.74,9.74,0,0,0-.63,4.39,10.66,10.66,0,0,0,1.5,4c.7,1.22,1.47,2.36,2.09,3.57a12.42,12.42,0,0,1,1.2,7.44c-.65,4.74-2.63,8.41-3.72,11.53a23.69,23.69,0,0,0-1.7,7.4,16.69,16.69,0,0,0,.08,2C133.34,327.42,133.35,327.65,133.35,327.65Z" style="fill: rgb(69, 90, 100); transform-origin: 147.253px 284.52px;" id="els2k4kifhths" class="animable"></path><path d="M150.15,121.8a52.06,52.06,0,0,0,.8,6.71c.06.33.11,1.33.18,1.66.45,1.92,1.25,2.74,2.39.76a17.29,17.29,0,0,0,.89-3.74l1.38-7a12.19,12.19,0,0,0,5.77,1.36,5.9,5.9,0,0,0,4.93-2.9,6.11,6.11,0,0,0,9.49,1.24,2.56,2.56,0,0,0,3.38.72,3,3,0,0,0,1.23-3.35c-.52-1.85-2.5-2.85-4.35-3.39-7.21-2.13-15.19-.46-21.68,3.34a11.51,11.51,0,0,0-2.62,2c-.74.81-1.76,1.76-1.79,2.85" style="fill: rgb(38, 50, 56); transform-origin: 165.431px 122.502px;" id="ela8pjh8y6se5" class="animable"></path><polygon points="151.91 158.85 151.91 158.85 151.91 158.85 151.91 158.85" style="fill: #13549A; transform-origin: 151.91px 158.85px;" id="el10n1gpteagva" class="animable"></polygon><path d="M152.81,247.34l-.22-88.24a61.49,61.49,0,0,0-8.73,1.3c-8.05,1.54-13.85,7.4-15.46,12.82l7.74,20.72-.31,27,0,10.35-3.73,25.62,20.68,6-.17-15.6Z" style="fill: #13549A; transform-origin: 140.605px 211.005px;" id="elkvprrxoj3c9" class="animable"></path><path d="M220.55,211.92c2.86-.44,34.09-13.69,34.09-13.69L252.13,183l-29.38,8L190.18,165.9c-4.79-4.33-8.19-5.8-15.57-6.67l-1.15-.13,5,88.24h0l1,16.52,18.45-2.94-2.62-24c-1.44-15.37-3.66-37.63-3.89-41.18C198.67,200.28,218.25,212.27,220.55,211.92Z" style="fill: #13549A; transform-origin: 214.05px 211.48px;" id="elp8mrlk9lpb8" class="animable"></path><path d="M220.11,198.36a9.54,9.54,0,0,1,2.35-7.53c.13.09-.86,1.58-1.49,3.67S220.27,198.36,220.11,198.36Z" style="fill: rgb(38, 50, 56); transform-origin: 221.254px 194.595px;" id="ell3f2egvl1aa" class="animable"></path><path d="M222.74,198.09a14.67,14.67,0,0,1-.14-7.52,24,24,0,0,1,.1,3.76A23.37,23.37,0,0,1,222.74,198.09Z" style="fill: rgb(38, 50, 56); transform-origin: 222.487px 194.33px;" id="elipt31s30lzl" class="animable"></path><g id="el4t8kgr1muo5"><g style="opacity: 0.2; transform-origin: 251.112px 191.825px;" class="animable" id="el1hztc6lwstv"><path d="M247.59,184.21c-.11,0,1.32,16.44,1.32,16.44l5.73-2.42L252.13,183Z" id="elnldf5icjpse" class="animable" style="transform-origin: 251.112px 191.825px;"></path></g></g><g id="elslhb2z7hcl"><g style="opacity: 0.2; transform-origin: 190.895px 242.16px;" class="animable" id="elg3eyo3klw77"><path d="M195,232.47l-10.41,3.88.9,8.29a8.09,8.09,0,0,0,9.87,7l1.84-.43Z" id="elonh4eg2mh7" class="animable" style="transform-origin: 190.895px 242.16px;"></path></g></g><g id="elgciza2iljtb"><g style="opacity: 0.2; transform-origin: 140.04px 242.724px;" class="animable" id="el373wjkeu2ul"><path d="M135.47,233.93l11.66,2.42-.81,5.93a10.71,10.71,0,0,1-12.12,9.13l-1.25-.18Z" id="el1e50usb9h8mh" class="animable" style="transform-origin: 140.04px 242.724px;"></path></g></g><path d="M192.81,211.93c-.14,0-1.17-10.61-2.3-23.71s-1.93-23.74-1.79-23.75,1.18,10.6,2.31,23.71S193,211.91,192.81,211.93Z" style="fill: rgb(38, 50, 56); transform-origin: 190.771px 188.2px;" id="el709t0heyh85" class="animable"></path><path d="M174.42,159.37a6,6,0,0,1,1.11.77,18.78,18.78,0,0,1,2.74,2.49,8.8,8.8,0,0,1,2.32,5,6.07,6.07,0,0,1-.07,1.64,10.28,10.28,0,0,1-.5,1.6,3.42,3.42,0,0,0-.25,1.56,3.94,3.94,0,0,0,.6,1.53c.29.5.62,1,.88,1.54a4.18,4.18,0,0,1,.42,1.76,6.41,6.41,0,0,1-1,3.17,21.36,21.36,0,0,1-1.72,2.39c-.56.72-1.06,1.4-1.51,2A18.89,18.89,0,0,0,175.6,188a11.52,11.52,0,0,0-.41,1.27s0-.12,0-.35a4.56,4.56,0,0,1,.23-1,16,16,0,0,1,1.74-3.28c.43-.65.92-1.35,1.46-2.09a21.57,21.57,0,0,0,1.66-2.37,4.74,4.74,0,0,0-.35-6,4.33,4.33,0,0,1-.66-1.73,3.86,3.86,0,0,1,.28-1.78,10.11,10.11,0,0,0,.49-1.54,5.85,5.85,0,0,0,.09-1.5,8.67,8.67,0,0,0-2.13-4.8,24.6,24.6,0,0,0-2.59-2.58A7.15,7.15,0,0,1,174.42,159.37Z" style="fill: rgb(38, 50, 56); transform-origin: 178.045px 174.32px;" id="elqxdfv6nlvoq" class="animable"></path><path d="M152.23,190.57a14.17,14.17,0,0,1-.51-1.37,22.55,22.55,0,0,0-1.75-3.56c-.42-.75-.88-1.55-1.37-2.4a19.92,19.92,0,0,1-1.38-2.89,9.18,9.18,0,0,1-.6-3.52,5.23,5.23,0,0,1,.45-1.88,6.54,6.54,0,0,1,1.15-1.6,2,2,0,0,0,.55-1.56,3.61,3.61,0,0,0-.61-1.59,12.45,12.45,0,0,1-1.92-3,5.3,5.3,0,0,1,.1-3.26,7.09,7.09,0,0,1,1.44-2.43,7.72,7.72,0,0,1,3.35-2.22,6,6,0,0,1,1.08-.22c.25,0,.38,0,.38,0s-.52.07-1.39.41a7.79,7.79,0,0,0-3.15,2.27,6.68,6.68,0,0,0-1.3,2.32,4.85,4.85,0,0,0-.05,3,12.33,12.33,0,0,0,1.89,2.85,4.19,4.19,0,0,1,.7,1.83,2.52,2.52,0,0,1-.67,1.93,6.27,6.27,0,0,0-1.08,1.48,4.81,4.81,0,0,0-.41,1.7,8.61,8.61,0,0,0,.55,3.33A19.54,19.54,0,0,0,149,183l1.32,2.43a19.17,19.17,0,0,1,1.61,3.67,8.64,8.64,0,0,1,.27,1.06C152.23,190.43,152.25,190.56,152.23,190.57Z" style="fill: rgb(38, 50, 56); transform-origin: 149.31px 174.82px;" id="el2i48g9tjk1a" class="animable"></path><path d="M163.57,159.76s0-.23-.29-.51a1.29,1.29,0,0,0-1.39-.36,2.51,2.51,0,0,0-1.42,1.73,11,11,0,0,1-1,3l-.18.27-.23-.24h0a15.2,15.2,0,0,0-4.34-3.35c-1.26-.66-2.11-.93-2.09-1a6.34,6.34,0,0,1,2.25.68,13.42,13.42,0,0,1,4.57,3.33h0l-.41,0a12.16,12.16,0,0,0,1-2.82,2.81,2.81,0,0,1,1.77-1.92,1.47,1.47,0,0,1,1.65.59C163.68,159.51,163.59,159.77,163.57,159.76Z" style="fill: rgb(38, 50, 56); transform-origin: 158.117px 161.198px;" id="ely2dzx3vyt3f" class="animable"></path><path d="M172.36,159.17a4.69,4.69,0,0,1-.69,1.24,22.69,22.69,0,0,1-2.18,2.86l-.33.35-.1-.49a14.06,14.06,0,0,0-.43-1.91,4.18,4.18,0,0,0-1.33-2.13,2.26,2.26,0,0,0-1.89-.53,2,2,0,0,0-1.18.68c-.21.26-.27.44-.32.43s0-.22.15-.55a2.12,2.12,0,0,1,1.26-.92,2.63,2.63,0,0,1,2.27.51,4.51,4.51,0,0,1,1.54,2.35,13.76,13.76,0,0,1,.43,2l-.42-.14c1-1,1.72-2,2.28-2.69A5.2,5.2,0,0,1,172.36,159.17Z" style="fill: rgb(38, 50, 56); transform-origin: 168.126px 160.873px;" id="el16haa0xoqdh" class="animable"></path><path d="M165.58,247.67a4.83,4.83,0,0,1-.05-.9c0-.63,0-1.48-.06-2.56,0-2.28-.06-5.49-.1-9.43-.08-8-.19-19-.4-31.11s-.52-23.15-.75-31.11c-.11-3.95-.2-7.15-.27-9.43l0-2.56a7.72,7.72,0,0,1,0-.9,5.31,5.31,0,0,1,.09.89c0,.63.09,1.49.15,2.56.11,2.28.26,5.48.44,9.43.33,7.95.68,18.95.9,31.11s.26,23.15.25,31.12c0,3.94-.05,7.15-.06,9.43,0,1.08,0,1.93-.05,2.56A6.3,6.3,0,0,1,165.58,247.67Z" style="fill: rgb(38, 50, 56); transform-origin: 164.859px 203.67px;" id="elun0a4iza9yk" class="animable"></path><rect x="281.92" y="176.79" width="3.78" height="5.03" style="fill: rgb(69, 90, 100); transform-origin: 283.81px 179.305px;" id="elibwyhdmq0s" class="animable"></rect><rect x="281.92" y="196.36" width="3.78" height="5.03" style="fill: rgb(69, 90, 100); transform-origin: 283.81px 198.875px;" id="el6tnlyrslt1u" class="animable"></rect><polygon points="157.86 433.33 158.12 424.46 187.97 424.46 187.4 432.71 157.86 433.33" style="fill: rgb(69, 90, 100); transform-origin: 172.915px 428.895px;" id="elj0q6q6p3ttl" class="animable"></polygon><polygon points="101.46 434.59 102.91 426.94 130.96 427.51 129.54 434.59 101.46 434.59" style="fill: rgb(69, 90, 100); transform-origin: 116.21px 430.765px;" id="el3b4z2mgysok" class="animable"></polygon><path d="M146.46,231.58l.24.3c.46.09.94.19,1.48.28a6.9,6.9,0,0,0,2.44,0,11.11,11.11,0,0,0,2.92-.82A.94.94,0,0,1,155,232.4c-.34.77-2.55,2.1-5.55,2.35s.91,2.93,2.32,3.92,5.63,4.29,5.67,5c.05,1-1,1.23-2.38.2s-5.76-3.82-6.25-3.05,6.76,5.74,6.76,5.74,1.72.81,1.19,1.72c-1,1.64-8.29-4.22-9-4.8-.47-.4-1,.42-.5.82s7.34,4.8,6.37,6.48c-.75,1.29-6.06-4.76-8-4.89s4.5,4.18,3.74,5.38c-.29.45-.56.74-3.89-2.26a104.32,104.32,0,0,1-7.58-8.42Z" style="fill: rgb(183, 136, 118); transform-origin: 147.671px 241.347px;" id="eltxui68m3r5" class="animable"></path><path d="M130.42,169.06s-12.19,19.51-21.29,33.77a13.68,13.68,0,0,0,4.4,19l24.3,20.32,10.32-11.07-20.06-22.38,13.13-18.14Z" style="fill: #13549A; transform-origin: 127.574px 205.605px;" id="el1442zl2bz8j" class="animable"></path><path d="M137.83,242.17a7.72,7.72,0,0,1,.69-.84c.52-.57,1.2-1.34,2-2.29,1.83-2,4.38-4.77,7.42-8.1v.3l-11.11-12.65-8.56-9.84-.13-.14.11-.15c3.19-4.59,6-8.39,8.08-11,1-1.32,1.85-2.35,2.42-3.05l.66-.79c.16-.17.24-.26.25-.25s-.05.11-.19.3l-.6.84c-.58.77-1.35,1.82-2.31,3.13-2,2.68-4.77,6.51-7.92,11.12l0-.29,8.6,9.8c4.06,4.67,7.85,9,11,12.71l.13.15-.14.15-7.55,8-2.14,2.2A6.62,6.62,0,0,1,137.83,242.17Z" style="fill: rgb(38, 50, 56); transform-origin: 138.255px 217.77px;" id="elzeobv0sakah" class="animable"></path><path d="M335.33,180.49a4.63,4.63,0,0,0-1.7-.64,8.09,8.09,0,0,0-4.77,1.18,18.56,18.56,0,0,1-3.25,1.4,6.24,6.24,0,0,1-2,.24,8.42,8.42,0,0,1-2.08-.41,40.61,40.61,0,0,1-4.08-1.83,8.61,8.61,0,0,0-4.45-1.06,11.61,11.61,0,0,0-4.35,1.61,21,21,0,0,1-4.06,1.9,6,6,0,0,1-4.08-.17,29.06,29.06,0,0,1-3.13-1.64,5.69,5.69,0,0,0-4.74-.72,3.26,3.26,0,0,0-1.42,1.1,1.25,1.25,0,0,1,.23-.43,2.63,2.63,0,0,1,1.11-.86,5.82,5.82,0,0,1,5,.59,30.86,30.86,0,0,0,3.1,1.56,5.67,5.67,0,0,0,3.8.11,21.15,21.15,0,0,0,4-1.89,11.63,11.63,0,0,1,4.54-1.67,9.1,9.1,0,0,1,4.72,1.1,39.1,39.1,0,0,0,4,1.85,6.38,6.38,0,0,0,3.82.21,18.74,18.74,0,0,0,3.2-1.32,8.09,8.09,0,0,1,5-1,3.46,3.46,0,0,1,1.3.52C335.23,180.35,335.34,180.48,335.33,180.49Z" style="fill: rgb(38, 50, 56); transform-origin: 313.275px 181.005px;" id="elzii7mn1kds" class="animable"></path><path d="M336.07,187.54a4.53,4.53,0,0,0-1.7-.64,8.12,8.12,0,0,0-4.77,1.18,18.12,18.12,0,0,1-3.24,1.4,6.31,6.31,0,0,1-2,.24,8.5,8.5,0,0,1-2.09-.41,38.44,38.44,0,0,1-4.07-1.84,8.77,8.77,0,0,0-4.46-1.05A11.4,11.4,0,0,0,309.4,188a21.38,21.38,0,0,1-4.07,1.9,6,6,0,0,1-4.08-.17,28.85,28.85,0,0,1-3.12-1.64,5.72,5.72,0,0,0-4.75-.72,3.1,3.1,0,0,0-1.41,1.1,1.06,1.06,0,0,1,.23-.43,2.44,2.44,0,0,1,1.11-.86,5.8,5.8,0,0,1,5,.59,34.41,34.41,0,0,0,3.1,1.56,5.67,5.67,0,0,0,3.8.11,21.15,21.15,0,0,0,3.95-1.89,11.78,11.78,0,0,1,4.55-1.68,9.19,9.19,0,0,1,4.71,1.11,37.83,37.83,0,0,0,4,1.84,6.31,6.31,0,0,0,3.82.22,19.59,19.59,0,0,0,3.2-1.32,8,8,0,0,1,5-1.05,3.44,3.44,0,0,1,1.3.52C336,187.4,336.08,187.53,336.07,187.54Z" style="fill: rgb(38, 50, 56); transform-origin: 314.02px 188.021px;" id="eldmlesp9bb6" class="animable"></path><path d="M335.73,194.88a4.53,4.53,0,0,0-1.7-.64,8.12,8.12,0,0,0-4.77,1.18,18.12,18.12,0,0,1-3.24,1.41,6.61,6.61,0,0,1-2,.23,8.5,8.5,0,0,1-2.09-.41,36.42,36.42,0,0,1-4.07-1.83,8.57,8.57,0,0,0-4.46-1,11.38,11.38,0,0,0-4.34,1.6,20.79,20.79,0,0,1-4.07,1.9,6.1,6.1,0,0,1-4.08-.16,30.69,30.69,0,0,1-3.12-1.65,5.75,5.75,0,0,0-4.75-.72,3.1,3.1,0,0,0-1.41,1.1,1.13,1.13,0,0,1,.23-.43,2.51,2.51,0,0,1,1.11-.86,5.8,5.8,0,0,1,5,.59,32,32,0,0,0,3.1,1.56,5.61,5.61,0,0,0,3.8.11,21.15,21.15,0,0,0,3.95-1.89,11.61,11.61,0,0,1,4.55-1.67,9.09,9.09,0,0,1,4.71,1.1,40.11,40.11,0,0,0,4,1.85,6.38,6.38,0,0,0,3.82.21,18.74,18.74,0,0,0,3.2-1.32,8.11,8.11,0,0,1,5-1.05,3.62,3.62,0,0,1,1.3.52C335.63,194.74,335.74,194.87,335.73,194.88Z" style="fill: rgb(38, 50, 56); transform-origin: 313.68px 195.444px;" id="elx5gbljgyuid" class="animable"></path></g><g id="freepik--Plant--inject-29" class="animable" style="transform-origin: 254.379px 377.738px;"><path d="M266,368.32a21.44,21.44,0,0,1,13.28-1.61c2.4.4,4.91,1.12,6.55,2.93s1.95,5,.07,6.54a6.23,6.23,0,0,1-4.13,1.05c-3.51,0-7.41-.66-10.21,1.45-1.6,1.21-2.66,3.21-4.57,3.8a4.53,4.53,0,0,1-5-2.21,7.74,7.74,0,0,1-.56-5.7A8.72,8.72,0,0,1,266,368.32Z" style="fill: #13549A; transform-origin: 274.158px 374.449px;" id="el4cgr0yodczz" class="animable"></path><path d="M256.75,350.47c2.46,3.52,7.26,2.36,9.49.2s3.16-5.27,4-8.24c1.95-6.8,3.92-13.93,2.47-20.85a11.65,11.65,0,0,0-2.66-5.66,6.05,6.05,0,0,0-5.74-1.91c-2.41.64-3.92,3-5,5.26a49.71,49.71,0,0,0-4.92,21.33c0,3.43.4,7,2.34,9.87" style="fill: #13549A; transform-origin: 263.8px 333.301px;" id="elykd9j1txcdo" class="animable"></path><path d="M250,355.53c2.68-3.18,3.19-7.82,2-11.81a22.72,22.72,0,0,0-7-10.14,37.6,37.6,0,0,0-12.52-7.39,13.32,13.32,0,0,0-5.63-.95,5.92,5.92,0,0,0-4.73,2.85c-1.31,2.52-.05,5.57,1.32,8.05a95.07,95.07,0,0,0,8.22,12.52c2.47,3.18,5.29,6.32,9.05,7.75s7.65,1.27,9.64-1.33" style="fill: #13549A; transform-origin: 237.087px 341.266px;" id="el91ibqmppgps" class="animable"></path><path d="M256.58,403.65a8.32,8.32,0,0,0,.22-1.6c.12-1.17.26-2.63.43-4.37a62.67,62.67,0,0,1,1-6.42,50.18,50.18,0,0,1,2.33-7.57,27.87,27.87,0,0,1,3.87-6.84,14.51,14.51,0,0,1,4.88-4.07,14,14,0,0,1,4.12-1.28,6.93,6.93,0,0,0,1.59-.23,8.08,8.08,0,0,0-1.62,0,12.51,12.51,0,0,0-4.29,1.11,14.47,14.47,0,0,0-5.16,4.1,27.43,27.43,0,0,0-4,7,46.77,46.77,0,0,0-2.32,7.69,56.18,56.18,0,0,0-.85,6.49c-.14,1.86-.19,3.36-.22,4.4A7.07,7.07,0,0,0,256.58,403.65Z" style="fill: rgb(38, 50, 56); transform-origin: 265.772px 387.44px;" id="el6shrvyt0gtg" class="animable"></path><path d="M256.88,400.29a3.2,3.2,0,0,0,0-.75v-2.12c0-1.85,0-4.52.09-7.81.16-6.6.73-13.69,1.83-23.7,1-9.4,2.43-20.35,3.9-27.47q.48-2.43.93-4.35c.29-1.28.53-2.38.77-3.27l.49-2.07a2.47,2.47,0,0,0,.13-.73,2.88,2.88,0,0,0-.25.7c-.17.53-.37,1.2-.62,2s-.56,2-.88,3.25-.68,2.73-1,4.34a243.82,243.82,0,0,0-4.1,25.49c-1.1,10-1.59,19.16-1.64,25.77,0,3.3,0,6,.12,7.82,0,.87.1,1.57.13,2.13A3.74,3.74,0,0,0,256.88,400.29Z" style="fill: rgb(38, 50, 56); transform-origin: 260.775px 364.155px;" id="el788pgeek9gt" class="animable"></path><path d="M256.92,382.68a13.49,13.49,0,0,0,0-2.22c-.08-1.43-.28-3.49-.68-6a79.08,79.08,0,0,0-2-8.76,71.56,71.56,0,0,0-3.66-10.37,55.11,55.11,0,0,0-10.77-16.76,27.77,27.77,0,0,0-2.53-2.36c-.39-.33-.73-.65-1.08-.91l-1-.68a16.78,16.78,0,0,0-1.87-1.2,67.88,67.88,0,0,1,6.12,5.47,58.18,58.18,0,0,1,10.5,16.7,83.61,83.61,0,0,1,3.69,10.28,89,89,0,0,1,2.08,8.67c.46,2.51.72,4.55.88,6A15.08,15.08,0,0,0,256.92,382.68Z" style="fill: rgb(38, 50, 56); transform-origin: 245.148px 358.05px;" id="elzf6wz8nsct" class="animable"></path><polygon points="238.73 411.06 240.49 435.23 271.54 435.23 273.31 411.06 238.73 411.06" style="fill: rgb(38, 50, 56); transform-origin: 256.02px 423.145px;" id="el8d3zqdxz1tn" class="animable"></polygon><rect x="235.73" y="401.53" width="41.28" height="9.53" style="fill: rgb(38, 50, 56); transform-origin: 256.37px 406.295px;" id="elbvkap59lnco" class="animable"></rect><polygon points="235.73 434.3 235.73 436.94 237.67 436.94 276.33 436.94 276.33 434.3 235.73 434.3" style="fill: rgb(69, 90, 100); transform-origin: 256.03px 435.62px;" id="elj3w8hxs029n" class="animable"></polygon><polygon points="239.57 441.59 237.67 436.94 274.85 436.94 272.63 441.59 239.57 441.59" style="fill: rgb(69, 90, 100); transform-origin: 256.26px 439.265px;" id="el04wabmmr2qbx" class="animable"></polygon><path d="M272.73,419a.86.86,0,0,1-.15.22l-.46.62-1.81,2.31-.08.1-.08-.1c-1.13-1.58-2.65-3.68-4.44-6.15H266c-1.33,1.87-2.8,4-4.38,6.2l-.14.19-.15-.18L256.11,416h.3l-.28.36-4.64,5.81-.16.2-.14-.2-4.38-6.2.26,0c-2.16,2.45-4,4.54-5.39,6.14l-.1.11-.07-.13-1.69-2.83-.43-.76a1.6,1.6,0,0,1-.14-.27,1.47,1.47,0,0,1,.18.24c.13.19.29.43.48.73l1.78,2.78h-.17l5.3-6.22.13-.15.13.17,4.41,6.16h-.3l4.63-5.82.29-.36.15-.19.15.19,5.17,6.18h-.29l4.42-6.16.13-.18.13.18,4.34,6.21h-.15l1.88-2.26.5-.58C272.66,419,272.72,419,272.73,419Z" style="fill: rgb(224, 224, 224); transform-origin: 255.99px 418.98px;" id="el2cl6ri37bo9" class="animable"></path><path d="M273.74,410.9c0,.11-7.78.19-17.38.19S239,411,239,410.9s7.78-.19,17.37-.19S273.74,410.79,273.74,410.9Z" style="fill: rgb(69, 90, 100); transform-origin: 256.37px 410.9px;" id="ellzxgw8r9t" class="animable"></path><path d="M275.31,437.2c0,.11-8.46.2-18.89.2s-18.88-.09-18.88-.2S246,437,256.42,437,275.31,437.1,275.31,437.2Z" style="fill: rgb(38, 50, 56); transform-origin: 256.425px 437.2px;" id="el4k8uf12bdl7" class="animable"></path><g id="elzrfsxrkt7i"><g style="opacity: 0.2; transform-origin: 274.158px 374.449px;" class="animable" id="el0r319kxc327"><path d="M266,368.32a21.44,21.44,0,0,1,13.28-1.61c2.4.4,4.91,1.12,6.55,2.93s1.95,5,.07,6.54a6.23,6.23,0,0,1-4.13,1.05c-3.51,0-7.41-.66-10.21,1.45-1.6,1.21-2.66,3.21-4.57,3.8a4.53,4.53,0,0,1-5-2.21,7.74,7.74,0,0,1-.56-5.7A8.72,8.72,0,0,1,266,368.32Z" id="elleo1yn3livk" class="animable" style="transform-origin: 274.158px 374.449px;"></path></g></g></g><g id="freepik--Email--inject-29" class="animable" style="transform-origin: 447.53px 217.601px;"><path d="M493.93,181c-1.14,3.51-3.11,5.16-5.24,4.47a2.32,2.32,0,0,1-1.6-3,4.83,4.83,0,0,1-4.86.91,5.61,5.61,0,0,1,3.45-10.66,4.86,4.86,0,0,1,3.39,3.5l.67-2.09,1.35.44-2.54,7.82c-.38,1.16.07,1.76.77,2,1.28.41,2.62-.91,3.53-3.7,1.57-4.85-.87-9.2-5.87-10.83s-9.61.63-11.2,5.53.71,9.43,5.73,11a9.48,9.48,0,0,0,4.26.38l0,1.13a10.65,10.65,0,0,1-4.62-.45c-5.68-1.84-8.3-7-6.52-12.48s7-8.06,12.67-6.21S495.68,175.55,493.93,181Zm-5.86-1.65a4.14,4.14,0,1,0-5.27,2.88A4,4,0,0,0,488.07,179.31Z" style="fill: #13549A; transform-origin: 484.268px 178.073px;" id="el1i1ovxlxy56i" class="animable"></path><path d="M371.39,192.62c.22,2.86-.71,4.63-2.45,4.76a1.8,1.8,0,0,1-2.05-1.69,3.73,3.73,0,0,1-3.23,2.1,4.37,4.37,0,0,1-.67-8.7,3.79,3.79,0,0,1,3.48,1.52l-.14-1.71,1.1-.08.49,6.39c.08.94.57,1.24,1.15,1.2,1-.08,1.62-1.43,1.44-3.71-.31-4-3.36-6.37-7.44-6.06s-6.73,3.31-6.42,7.3a6.53,6.53,0,0,0,7.4,6.26,7.51,7.51,0,0,0,3.18-1l.35.81a8.1,8.1,0,0,1-3.46,1,7.42,7.42,0,0,1-8.4-7.05c-.34-4.48,2.63-7.87,7.29-8.23S371,188.2,371.39,192.62Zm-4.71.55a3.22,3.22,0,1,0-2.94,3.63A3.15,3.15,0,0,0,366.68,193.17Z" style="fill: rgb(38, 50, 56); transform-origin: 363.558px 193.388px;" id="elwo51hr7387m" class="animable"></path><path d="M483.07,322.63c-1.27,3.11-3.18,4.46-5.06,3.68a2.09,2.09,0,0,1-1.24-2.83,4.42,4.42,0,0,1-4.47.48,5.1,5.1,0,0,1,3.88-9.42A4.41,4.41,0,0,1,479,318l.76-1.85,1.19.49-2.85,6.92c-.42,1-.06,1.6.56,1.85,1.13.47,2.44-.63,3.46-3.1,1.76-4.29-.15-8.41-4.57-10.23s-8.75-.1-10.54,4.23,0,8.59,4.43,10.42a8.72,8.72,0,0,0,3.83.64l-.06,1a9.42,9.42,0,0,1-4.16-.73c-5-2.06-7-6.93-5-11.77s6.89-6.81,11.93-4.74S485,317.85,483.07,322.63Zm-5.19-1.9a3.77,3.77,0,1,0-5,2.24A3.68,3.68,0,0,0,477.88,320.73Z" style="fill: #13549A; transform-origin: 474.541px 319.348px;" id="ellbu2ghut0h" class="animable"></path><path d="M569.87,270.74c-1.28,3.1-3.18,4.45-5.06,3.68a2.11,2.11,0,0,1-1.25-2.84,4.39,4.39,0,0,1-4.47.49,5.1,5.1,0,0,1,3.88-9.42,4.41,4.41,0,0,1,2.83,3.4l.76-1.84,1.18.49-2.85,6.92c-.42,1-.06,1.59.56,1.85,1.14.47,2.45-.64,3.46-3.1,1.77-4.3-.15-8.41-4.56-10.23s-8.76-.11-10.54,4.22a7.64,7.64,0,0,0,4.42,10.43,8.74,8.74,0,0,0,3.84.64l-.06,1a9.71,9.71,0,0,1-4.16-.73c-5-2.07-7-6.93-5.05-11.77s6.89-6.82,11.93-4.74S571.84,266,569.87,270.74Zm-5.2-1.91a3.76,3.76,0,1,0-5,2.25A3.68,3.68,0,0,0,564.67,268.83Z" style="fill: rgb(69, 90, 100); transform-origin: 561.335px 267.405px;" id="elixi8yctlx7s" class="animable"></path><path d="M461.25,131.46c-1.42,3.44-3.53,4.94-5.62,4.08a2.33,2.33,0,0,1-1.37-3.15,4.85,4.85,0,0,1-5,.54,5.65,5.65,0,0,1,4.3-10.44,4.87,4.87,0,0,1,3.13,3.77l.84-2,1.32.54-3.16,7.67c-.47,1.14-.07,1.78.62,2.06,1.26.52,2.71-.71,3.84-3.44,1.95-4.76-.17-9.33-5.07-11.35s-9.71-.11-11.68,4.69,0,9.54,4.9,11.56a9.7,9.7,0,0,0,4.25.71l-.06,1.13a10.63,10.63,0,0,1-4.62-.81c-5.56-2.29-7.8-7.68-5.59-13s7.64-7.56,13.23-5.26S463.43,126.16,461.25,131.46Zm-5.77-2.11a4.17,4.17,0,1,0-7.71-3.18,4.18,4.18,0,1,0,7.71,3.18Z" style="fill: rgb(38, 50, 56); transform-origin: 451.749px 127.852px;" id="eljdhyry35crg" class="animable"></path><path d="M404,238.51c1.12,2.91.7,5-1.06,5.72a2,2,0,0,1-2.66-1.12,4.07,4.07,0,0,1-2.7,3.19,4.74,4.74,0,0,1-3.41-8.84,4.1,4.1,0,0,1,4.08.49l-.66-1.73,1.11-.43,2.5,6.49c.37,1,1,1.12,1.57.9,1.06-.41,1.23-2,.34-4.31-1.55-4-5.48-5.58-9.62-4s-6,5.53-4.4,9.59a7.1,7.1,0,0,0,9.65,4.21,8.12,8.12,0,0,0,3-2l.62.73a8.92,8.92,0,0,1-3.28,2.17c-4.71,1.82-9.18-.18-10.93-4.72s.29-9,5-10.82S402.24,234,404,238.51Zm-4.73,2a3.5,3.5,0,1,0-1.92,4.7A3.42,3.42,0,0,0,399.25,240.55Z" style="fill: #13549A; transform-origin: 396.075px 241.783px;" id="elm2qh03blmz" class="animable"></path><g id="el4dpoxxg93v9"><rect x="390.56" y="280.8" width="34.71" height="23.39" style="fill: rgb(38, 50, 56); transform-origin: 407.915px 292.495px; transform: rotate(-22.94deg);" class="animable" id="elknbwnckt04m"></rect></g><path d="M428.45,296.5s-.07-.14-.18-.39-.29-.65-.5-1.14l-1.87-4.33c-1.6-3.74-3.9-9.1-6.69-15.63l.17.07-31.94,13.56c0,.05.17-.42.09-.21h0v.07l0,.09.08.18.15.36.3.72c.21.47.41.95.61,1.42l1.19,2.82,2.33,5.51L396.63,310l-.2-.08,23-9.67,6.6-2.75,1.77-.72.46-.19.16-.06-.14.07-.44.19-1.72.75-6.54,2.82-23.06,9.84-.14.06-.06-.14c-1.39-3.28-2.87-6.74-4.39-10.35q-1.15-2.7-2.34-5.51l-1.19-2.82-.61-1.42-.3-.72-.15-.36-.08-.18,0-.09,0,0v0h0c-.09.19.1-.28.09-.23l32-13.5.12-.05.06.13,6.59,15.76c.77,1.86,1.38,3.31,1.8,4.32.19.49.35.86.46,1.13S428.45,296.5,428.45,296.5Z" style="fill: rgb(38, 50, 56); transform-origin: 407.846px 292.575px;" id="elq2rv2to25e" class="animable"></path><path d="M419.33,275a2.38,2.38,0,0,1-.15.41c-.12.29-.29.67-.49,1.15l-1.86,4.22c-1.62,3.58-3.83,8.5-6.3,14l-.06.13-.14,0-1.05-.28-15.51-4.21L389.08,289l-1.27-.37-.44-.15.46.08,1.28.32,4.72,1.2,15.53,4.11,1.06.28-.2.1,6.4-13.94c.81-1.74,1.48-3.16,2-4.17l.54-1.13A2.3,2.3,0,0,1,419.33,275Z" style="fill: rgb(69, 90, 100); transform-origin: 403.35px 284.955px;" id="elpqyddb1ebva" class="animable"></path><path d="M396.6,310.19a82.11,82.11,0,0,1,2.46-9,83.46,83.46,0,0,1,3-8.89,87.3,87.3,0,0,1-2.47,9A87.79,87.79,0,0,1,396.6,310.19Z" style="fill: rgb(69, 90, 100); transform-origin: 399.33px 301.245px;" id="elr00kl1izppi" class="animable"></path><path d="M428.45,296.5a12.09,12.09,0,0,1-2.31-1c-1.39-.66-3.3-1.61-5.39-2.69s-4-2.08-5.34-2.83a12.21,12.21,0,0,1-2.16-1.32,12.63,12.63,0,0,1,2.29,1c1.39.66,3.31,1.61,5.41,2.69s4,2.09,5.36,2.84A12.58,12.58,0,0,1,428.45,296.5Z" style="fill: rgb(69, 90, 100); transform-origin: 420.85px 292.58px;" id="el08spjvpcnv99" class="animable"></path><g id="el4glyjhydnu6"><rect x="539.84" y="159.52" width="38.49" height="57.1" style="fill: #13549A; transform-origin: 559.085px 188.07px; transform: rotate(-89.23deg);" class="animable" id="elx84kic7790p"></rect></g><path d="M587.89,169.21a3.56,3.56,0,0,1-.5.52l-1.5,1.41-5.59,5.12-18.75,16.89-.17.15-.19-.14-1.4-1.13-20.58-16.59L533,170.36l-1.67-1.4a3.3,3.3,0,0,1-.56-.52,5.33,5.33,0,0,1,.63.43l1.73,1.32,6.31,4.94,20.68,16.47,1.4,1.12h-.36L580,176l5.71-5,1.57-1.33A3.56,3.56,0,0,1,587.89,169.21Z" style="fill: rgb(38, 50, 56); transform-origin: 559.33px 180.87px;" id="elkljpnfkm8m" class="animable"></path><path d="M530.27,206.93c-.1-.1,4.39-5.28,10.05-11.58s10.32-11.32,10.43-11.23-4.39,5.28-10,11.58S530.38,207,530.27,206.93Z" style="fill: rgb(38, 50, 56); transform-origin: 540.51px 195.525px;" id="el8259uty9a3n" class="animable"></path><path d="M587.37,207.7a4.49,4.49,0,0,1-.75-.8c-.45-.54-1.1-1.33-1.88-2.31-1.57-2-3.72-4.67-6.06-7.7s-4.43-5.79-5.94-7.81c-.69-1-1.27-1.75-1.76-2.41a5.62,5.62,0,0,1-.6-.94s.29.25.74.79l1.88,2.29c1.57,2,3.72,4.69,6.07,7.73s4.45,5.8,5.95,7.82c.75,1,1.35,1.84,1.76,2.41A4.6,4.6,0,0,1,587.37,207.7Z" style="fill: rgb(38, 50, 56); transform-origin: 578.875px 196.715px;" id="elpu2wjpr1zmp" class="animable"></path><g id="elhznja5qe2q7"><rect x="460.87" y="215.09" width="39.13" height="58.05" style="fill: rgb(69, 90, 100); transform-origin: 480.435px 244.115px; transform: rotate(-85.59deg);" class="animable" id="elvm3epiwxv3"></rect></g><path d="M510.87,226.84a3.18,3.18,0,0,1-.53.5l-1.62,1.33-6,4.84-20.11,15.92-.19.15-.17-.16-1.35-1.23L461.09,230l-6-5.56-1.6-1.53a3.65,3.65,0,0,1-.53-.56,4.74,4.74,0,0,1,.61.48l1.67,1.45,6.08,5.42,19.92,18,1.35,1.23-.37,0,20.22-15.78,6.11-4.7,1.68-1.25A4.4,4.4,0,0,1,510.87,226.84Z" style="fill: rgb(38, 50, 56); transform-origin: 481.915px 235.965px;" id="el0u1k2q9ftxor" class="animable"></path><path d="M450,261.7c-.11-.1,4.7-5.21,10.73-11.41s11-11.14,11.11-11-4.7,5.2-10.74,11.41S450.13,261.8,450,261.7Z" style="fill: rgb(38, 50, 56); transform-origin: 460.92px 250.494px;" id="elj1r1zapuos" class="animable"></path><path d="M507.86,265.85a4.92,4.92,0,0,1-.73-.85l-1.84-2.45c-1.54-2.08-3.63-5-5.91-8.18s-4.34-6.14-5.8-8.27c-.67-1-1.25-1.86-1.72-2.56a5,5,0,0,1-.57-1,4.79,4.79,0,0,1,.72.84l1.84,2.45c1.54,2.07,3.63,5,5.93,8.19s4.34,6.16,5.8,8.29l1.72,2.55A4.69,4.69,0,0,1,507.86,265.85Z" style="fill: rgb(38, 50, 56); transform-origin: 499.575px 254.195px;" id="elxplm1ezfhgk" class="animable"></path><path d="M447.18,193.32s0-.19-.09-.54l-.25-1.55c-.2-1.37-.5-3.36-.89-5.89-.75-5.09-1.82-12.38-3.14-21.26l.2.15L399.6,170.5c-.05.05.34-.46.18-.24h0v.1l0,.12,0,.24.07.49.13,1c.1.65.19,1.3.28,1.94.19,1.29.37,2.57.55,3.84.36,2.53.72,5,1.07,7.48.7,4.9,1.37,9.61,2,14.07l-.22-.17L435,195l9-1.23,2.39-.32.62-.08.22,0s-.06,0-.19,0l-.6.1-2.34.36-8.9,1.33-31.36,4.6-.19,0,0-.2c-.64-4.46-1.32-9.16-2-14.06-.36-2.45-.71-5-1.08-7.48-.18-1.27-.37-2.55-.55-3.84-.09-.64-.19-1.29-.28-1.93l-.14-1-.07-.49,0-.24,0-.12v-.11h0c-.16.22.22-.3.19-.24L443,163.89l.17,0,0,.17c1.25,8.93,2.27,16.27,3,21.39.34,2.52.61,4.5.8,5.87.08.65.15,1.16.2,1.52S447.18,193.32,447.18,193.32Z" style="fill: rgb(38, 50, 56); transform-origin: 423.36px 181.825px;" id="elclcuityc2a8" class="animable"></path><path d="M443,164.06a2.47,2.47,0,0,1-.31.45l-1,1.25-3.64,4.55-12.2,15.05-.12.14-.16-.09-1.19-.68-17.6-10.14-5.31-3.11-1.43-.86a4.8,4.8,0,0,1-.49-.33,2.83,2.83,0,0,1,.53.25l1.47.8,5.38,3,17.66,10,1.2.68-.28.05,12.32-15,3.73-4.48,1-1.19A3,3,0,0,1,443,164.06Z" style="fill: rgb(38, 50, 56); transform-origin: 421.275px 174.78px;" id="elgvovu9hsaww" class="animable"></path><path d="M403.84,199.78c-.12-.08,2.56-4.65,6-10.22s6.31-10,6.43-9.94-2.56,4.65-6,10.22S404,199.85,403.84,199.78Z" style="fill: rgb(38, 50, 56); transform-origin: 410.055px 189.7px;" id="elrdhxb2vwb5" class="animable"></path><path d="M447.18,193.32a18.44,18.44,0,0,1-2.47-2c-1.48-1.27-3.5-3.06-5.72-5s-4.2-3.82-5.62-5.16a21,21,0,0,1-2.25-2.27,17.8,17.8,0,0,1,2.46,2c1.48,1.27,3.51,3,5.73,5s4.22,3.83,5.64,5.18A18.39,18.39,0,0,1,447.18,193.32Z" style="fill: rgb(38, 50, 56); transform-origin: 439.15px 186.105px;" id="eluuuf8acvtws" class="animable"></path><g id="elsbfew1i8w3t"><rect x="355.69" y="126.72" width="38.36" height="25.86" style="fill: #13549A; transform-origin: 374.87px 139.65px; transform: rotate(-26.21deg);" class="animable" id="elcop51bjfxan"></rect></g><path d="M385.86,119.47a2.11,2.11,0,0,1-.14.46l-.46,1.3c-.44,1.17-1.05,2.78-1.79,4.77l-6.08,15.83-.05.14-.16,0L376,141.7,358.62,138l-5.26-1.15-1.42-.34a1.82,1.82,0,0,1-.49-.14,2.71,2.71,0,0,1,.5.07l1.44.26,5.29,1,17.4,3.55,1.18.25-.22.11c2.43-6.18,4.6-11.73,6.19-15.78l1.89-4.73c.22-.53.4-1,.53-1.28A2.39,2.39,0,0,1,385.86,119.47Z" style="fill: rgb(38, 50, 56); transform-origin: 368.655px 130.72px;" id="elmzi04a2ikdg" class="animable"></path><line x1="366.3" y1="139.65" x2="362.87" y2="159.61" style="fill: rgb(38, 50, 56); transform-origin: 364.585px 149.63px;" id="elx1ugxld8jof" class="animable"></line><path d="M362.87,159.61a100.26,100.26,0,0,1,1.45-10,96.12,96.12,0,0,1,2-9.94c.14,0-.52,4.51-1.46,10A100.64,100.64,0,0,1,362.87,159.61Z" style="fill: rgb(38, 50, 56); transform-origin: 364.604px 149.64px;" id="eljw8832oppmp" class="animable"></path><line x1="397.28" y1="142.67" x2="380.54" y2="132.77" style="fill: rgb(38, 50, 56); transform-origin: 388.91px 137.72px;" id="elv334ci2b5bp" class="animable"></line><path d="M380.54,132.77a89.65,89.65,0,0,1,8.5,4.72,88.13,88.13,0,0,1,8.24,5.18,94.17,94.17,0,0,1-8.5-4.73A92.9,92.9,0,0,1,380.54,132.77Z" style="fill: rgb(38, 50, 56); transform-origin: 388.91px 137.72px;" id="elfzt2p87fqje" class="animable"></path><rect x="507.78" y="106.82" width="38.36" height="25.86" style="fill: rgb(69, 90, 100); transform-origin: 526.96px 119.75px;" id="el7ixc51ee5as" class="animable"></rect><path d="M546.14,106.82a3.55,3.55,0,0,1-.33.35l-1,1-3.72,3.49-12.43,11.51-.12.11-.12-.1-1-.74-14-11-4.21-3.35-1.13-.93a2.13,2.13,0,0,1-.38-.34,2.93,2.93,0,0,1,.42.28l1.18.87,4.28,3.27,14,10.87,1,.74h-.25l12.52-11.43,3.79-3.41,1-.91A2.13,2.13,0,0,1,546.14,106.82Z" style="fill: rgb(38, 50, 56); transform-origin: 526.92px 115.05px;" id="el3p3qmvms8dx" class="animable"></path><line x1="519.67" y1="116.28" x2="507.78" y2="132.68" style="fill: rgb(38, 50, 56); transform-origin: 513.725px 124.48px;" id="elouhpmn4lj5n" class="animable"></line><path d="M507.78,132.68a95.6,95.6,0,0,1,5.73-8.35,100,100,0,0,1,6.16-8,95.6,95.6,0,0,1-5.73,8.35A100,100,0,0,1,507.78,132.68Z" style="fill: rgb(38, 50, 56); transform-origin: 513.725px 124.505px;" id="eloswae631xx" class="animable"></path><line x1="546.14" y1="132.67" x2="535.49" y2="116.4" style="fill: rgb(38, 50, 56); transform-origin: 540.815px 124.535px;" id="elpaajc9gl38k" class="animable"></line><path d="M535.49,116.4a91.23,91.23,0,0,1,5.54,8,89.85,89.85,0,0,1,5.11,8.28,91.23,91.23,0,0,1-5.54-8A94.28,94.28,0,0,1,535.49,116.4Z" style="fill: rgb(38, 50, 56); transform-origin: 540.815px 124.54px;" id="elqsr7rbiefka" class="animable"></path><g id="elu5dtphhjiwn"><rect x="318.63" y="209.89" width="33.41" height="49.57" style="fill: #13549A; transform-origin: 335.335px 234.675px; transform: rotate(-75.59deg);" class="animable" id="elirrnu7yld2l"></rect></g><path d="M363.49,224.66a3,3,0,0,1-.52.33l-1.56.89-5.76,3.17-19.27,10.41-.18.1-.13-.17-.95-1.23-14-18.21L317,214.4l-1.12-1.52a4.79,4.79,0,0,1-.37-.56,2.84,2.84,0,0,1,.45.5l1.19,1.47,4.31,5.45,14.07,18.13,1,1.23-.31-.07,19.34-10.27,5.84-3,1.59-.8A2.54,2.54,0,0,1,363.49,224.66Z" style="fill: rgb(38, 50, 56); transform-origin: 339.5px 225.94px;" id="eld1f5luhi7sk" class="animable"></path><line x1="327.32" y1="227.99" x2="307.17" y2="244.68" style="fill: rgb(38, 50, 56); transform-origin: 317.245px 236.335px;" id="elvic7z9o1per" class="animable"></line><path d="M307.17,244.68c-.09-.11,4.35-3.93,9.91-8.54s10.15-8.26,10.24-8.15-4.34,3.94-9.91,8.55S307.26,244.79,307.17,244.68Z" style="fill: rgb(38, 50, 56); transform-origin: 317.245px 236.335px;" id="el3dyp08il6s7" class="animable"></path><line x1="355.18" y1="257.02" x2="347.08" y2="233.22" style="fill: rgb(38, 50, 56); transform-origin: 351.13px 245.12px;" id="elsjyl8mabi4h" class="animable"></line><path d="M347.08,233.22c.14,0,2.06,5.25,4.3,11.82s3.93,11.93,3.8,12-2.06-5.25-4.3-11.82S347,233.27,347.08,233.22Z" style="fill: rgb(38, 50, 56); transform-origin: 351.132px 245.13px;" id="ell8upnsadfmf" class="animable"></path></g><defs>     <filter id="active" height="200%">         <feMorphology in="SourceAlpha" result="DILATED" operator="dilate" radius="2"></feMorphology>                <feFlood flood-color="#32DFEC" flood-opacity="1" result="PINK"></feFlood>        <feComposite in="PINK" in2="DILATED" operator="in" result="OUTLINE"></feComposite>        <feMerge>            <feMergeNode in="OUTLINE"></feMergeNode>            <feMergeNode in="SourceGraphic"></feMergeNode>        </feMerge>    </filter>    <filter id="hover" height="200%">        <feMorphology in="SourceAlpha" result="DILATED" operator="dilate" radius="2"></feMorphology>                <feFlood flood-color="#ff0000" flood-opacity="0.5" result="PINK"></feFlood>        <feComposite in="PINK" in2="DILATED" operator="in" result="OUTLINE"></feComposite>        <feMerge>            <feMergeNode in="OUTLINE"></feMergeNode>            <feMergeNode in="SourceGraphic"></feMergeNode>        </feMerge>            <feColorMatrix type="matrix" values="0   0   0   0   0                0   1   0   0   0                0   0   0   0   0                0   0   0   1   0 "></feColorMatrix>    </filter></defs></svg>